<?xml version="1.0" encoding="utf-8"?>
<!-- Generator: Adobe Illustrator 16.0.0, SVG Export Plug-In . SVG Version: 6.00 Build 0)  -->
<!DOCTYPE svg PUBLIC "-//W3C//DTD SVG 1.1//EN" "http://www.w3.org/Graphics/SVG/1.1/DTD/svg11.dtd">
<svg version="1.1" id="Calque_1" xmlns="http://www.w3.org/2000/svg" xmlns:xlink="http://www.w3.org/1999/xlink" x="0px" y="0px"
	 width="111.465px" height="24.971px" viewBox="0 0 111.465 24.971" enable-background="new 0 0 111.465 24.971"
	 xml:space="preserve">
<g>
	<path fill="#3AAA35" d="M111.057,6.137l-0.281-0.166l-0.673-0.391l-9.039-5.253c-0.254-0.146-0.566-0.148-0.82-0.004l-9.069,5.202
		L90.5,5.912l-0.283,0.162c-0.253,0.145-0.411,0.417-0.411,0.708l-0.003,0.328l-0.001,0.777l-0.029,10.455
		c-0.001,0.292,0.152,0.562,0.405,0.709l9.041,5.255l0.671,0.39l0.283,0.164c0.127,0.075,0.268,0.111,0.411,0.111
		c0.142,0,0.28-0.036,0.406-0.108l0.285-0.162l0.674-0.389l9.07-5.199c0.252-0.146,0.41-0.415,0.41-0.708l0.03-10.456l0.004-0.776
		l0.001-0.326C111.465,6.553,111.31,6.284,111.057,6.137z M90.327,9.697V9.696V9.697z M91.146,10.173L91.146,10.173L91.146,10.173z
		 M99.771,22.729l-7.542-4.381l6.44-3.692V13.7l-0.791-0.479l-6.466,3.706l0.025-8.09l0.001-0.315V8.207l8.348,4.857L99.771,22.729z
		 M100.615,13.54L100.615,13.54L100.615,13.54z M100.62,12.594L100.62,12.594L100.62,12.594z M100.622,11.649l-0.007-0.004
		l-0.813-0.473L92.263,6.79l0.273-0.157l0.275-0.157l7.017-4.025l-0.021,7.448l0.802,0.46l0.837-0.465l0.021-7.437l6.995,4.065
		l0.271,0.159l0.275,0.157l-3.207,1.838l-4.36,2.501L100.622,11.649z M109.796,16.981l-6.47-3.761l-0.793,0.479v0.954l6.441,3.744
		l-7.567,4.338l0.011-3.544l0.001-0.41l0.016-5.712l8.387-4.811L109.796,16.981z"/>
</g>
<g>
	<path fill="#FFFFFF" d="M4.615,19.969C2.172,19.969,0,18.61,0,17.252v-3.406c0-1.509,1.778-2.715,4.615-2.715h3.287V8.597
		c0-1.237-1.749-2.081-3.287-2.081c-1.298,0-2.745,0.573-3.168,1.479L0.21,7.301C0.845,6.244,2.623,5.34,4.615,5.34
		C7.028,5.34,9.2,6.727,9.2,8.084v9.168C9.2,18.61,7.028,19.969,4.615,19.969z M7.902,12.367H4.495c-1.872,0-3.199,0.604-3.199,1.99
		v2.383c0,1.236,1.751,2.051,3.319,2.051c1.538,0,3.287-0.814,3.287-2.051V12.367z"/>
	<path fill="#FFFFFF" d="M12.671,19.696V0h1.296v19.696H12.671z"/>
	<path fill="#FFFFFF" d="M22.202,19.666h-1.057L16.38,5.67h1.357l3.922,11.492L25.58,5.67h1.388L22.202,19.666z"/>
	<path fill="#FFFFFF" d="M30.137,12.789c0,0.393,0,0.814,0,1.418c0,1.297,0.091,1.81,0.271,2.504
		c0.332,1.447,1.479,2.201,3.378,2.201h0.031c1.899,0,3.047-0.754,3.378-2.201c0.061-0.182,0.09-0.361,0.12-0.544h1.358
		c-0.031,0.272-0.091,0.544-0.151,0.815c-0.272,1.176-1.267,3.016-4.736,3.016c-3.437,0-4.402-1.84-4.705-3.016
		c-0.18-0.785-0.271-1.419-0.3-2.805v-0.453c0-1.025,0-1.418,0-2.322c0-0.332,0.149-2.112,0.3-2.865
		c0.424-1.991,2.233-3.047,4.705-3.047c2.504,0,4.313,1.056,4.736,3.047c0.151,0.753,0.272,2.533,0.272,2.865
		c0.029,0.512,0.029,0.904,0.029,1.387H30.137z M37.467,11.402c-0.031-0.424-0.152-2.051-0.272-2.625
		c-0.272-1.326-1.508-2.201-3.378-2.201h-0.031c-1.868,0-3.105,0.875-3.378,2.201c-0.121,0.574-0.271,2.052-0.271,2.625v0.059h7.33
		V11.402z"/>
	<path fill="#FFFFFF" d="M50.83,16.982c-0.272,1.176-1.269,3.016-4.736,3.016c-3.438,0-4.403-1.84-4.705-3.016
		c-0.181-0.785-0.272-1.419-0.272-2.805c-0.029-2.233-0.029-2.775-0.029-2.775c0-1.057,0.121-1.871,0.302-2.865
		c0.423-1.991,2.232-3.047,4.705-3.047c2.503,0,4.312,1.056,4.736,3.047c0.15,0.753,0.271,2.533,0.271,2.865
		c0,0,0.029,0.754,0.029,2.775C51.101,15.563,51.01,16.197,50.83,16.982z M49.773,11.402c-0.029-0.424-0.149-2.051-0.271-2.625
		c-0.272-1.326-1.51-2.201-3.378-2.201h-0.031c-1.87,0-3.105,0.875-3.378,2.201c-0.12,0.574-0.272,2.052-0.272,2.625
		c0,0.935,0,1.478,0,2.805c0,1.297,0.092,1.81,0.272,2.504c0.331,1.447,1.479,2.201,3.378,2.201h0.031
		c1.899,0,3.046-0.754,3.378-2.201c0.18-0.694,0.271-1.207,0.271-2.504C49.773,12.88,49.773,12.367,49.773,11.402z"/>
	<path fill="#FFFFFF" d="M54.601,19.696V0h1.298v19.696H54.601z"/>
	<path fill="#FFFFFF" d="M70.137,15.594c0,0.09-0.062,0.725-0.272,1.297c-0.784,2.051-2.956,3.078-5.036,3.078
		c-2.082,0-4.254-1.027-5.038-3.078c-0.212-0.572-0.271-1.176-0.271-1.266V5.701h2.533v8.896c0,0.514,0,0.937,0.09,1.27
		c0.241,0.844,1.538,1.627,2.654,1.627h0.061c1.115,0,2.413-0.783,2.654-1.627c0.091-0.333,0.091-0.545,0.091-1.238V5.701h2.534
		V15.594z"/>
	<path fill="#FFFFFF" d="M83.56,17.676c-0.452,1.056-1.327,2.021-3.167,2.021h-3.89c-1.689-0.21-2.775-1.025-3.168-2.714
		l2.474-0.664c0.212,0.724,0.663,1.086,1.418,1.086h2.472c1.057,0,1.51-0.514,1.51-1.721c0-1.115-0.514-1.688-1.51-1.688h-3.166
		h-0.029c-2.172-0.271-3.349-1.719-3.349-4.223v-0.06c0-2.504,1.115-3.922,3.349-4.223h3.89c1.298,0.211,2.172,0.875,2.775,1.869
		l0.392,0.665L81.237,9.2l-0.332-0.543c-0.241-0.423-0.633-0.633-1.207-0.633h-2.472c-1.057,0-1.51,0.513-1.51,1.719
		s0.453,1.718,1.51,1.718h3.166c2.201,0.273,3.62,1.689,3.528,4.193C83.921,16.408,83.801,17.103,83.56,17.676z"/>
</g>
</svg>
