<?xml version="1.0" encoding="utf-8"?>
<!-- Generator: Adobe Illustrator 14.0.0, SVG Export Plug-In . SVG Version: 6.00 Build 43363)  -->
<!DOCTYPE svg PUBLIC "-//W3C//DTD SVG 1.1//EN" "http://www.w3.org/Graphics/SVG/1.1/DTD/svg11.dtd">
<svg version="1.1" id="Layer_1" xmlns="http://www.w3.org/2000/svg" xmlns:xlink="http://www.w3.org/1999/xlink" x="0px" y="0px"
	 width="60px" height="40px" viewBox="0 0 60 40" enable-background="new 0 0 60 40" xml:space="preserve">
<path d="M39.927,4.453c-0.963-0.717-2.454-0.809-3.436-1.796c-1.894-0.419-2.669,1.379-4.375,1.64
	c-0.753,2.191-1.848,3.841-2.891,5.78c-2.504,4.659-4.518,9.553-6.951,14.216c-0.099,0.239-0.586,0.091-0.547,0.469
	c-0.13,2.055-0.661,5.55-1.093,7.498c-0.135,0.604-0.54,0.879-0.391,1.25c0.1,0.248,1.111,0.872,1.563,0.859
	c0.564-0.017,1.26-0.701,1.874-1.094c1.875-1.196,3.765-2.498,5.312-3.594c0.296-0.641,0.658-1.216,1.25-1.563
	c1.556-3.293,3.471-6.529,5.312-10.231c1.246-2.503,2.705-5.078,3.904-7.733c0.356-0.784,1.149-2.089,1.172-2.733
	C40.667,6.402,39.863,5.371,39.927,4.453 M36.178,4.375c0.491-0.408,0.994,0.123,1.562,0.468c-1.614,3.686-3.896,6.961-5.779,10.467
	c-1.881,3.498-3.633,7.075-5.545,10.624c-0.219-0.069-0.386-0.187-0.625-0.234c-0.024-1.023,0.669-1.839,1.093-2.734
	c1.274-2.688,2.456-5.313,3.906-8.045c1.297-2.445,2.707-5.234,4.061-7.889C35.264,6.22,35.707,4.764,36.178,4.375 M25.086,22.341
	c2.558-5.585,5.531-11.503,8.513-16.716c0.275-0.117,0.569-0.211,0.703-0.469c0.14-0.021,0.161,0.074,0.079,0.078
	c-2.841,5.731-5.7,11.439-8.592,17.185c-0.416,0.824-0.611,1.735-1.25,2.421C23.924,24.156,24.741,23.095,25.086,22.341
	 M22.274,32.26c-0.011-0.375,0.074-0.654,0.234-0.859c0.169,0.171,0.426,0.251,0.625,0.391C22.956,32.057,22.657,32.2,22.274,32.26
	 M24.227,31.088c-0.66-0.199-0.925-0.793-1.485-1.094c0.174-1.493,0.476-2.856,0.782-4.218h0.234
	c0.227,0.14,0.365,0.365,0.469,0.625c1.406,0.19,2.388,1.108,3.671,1.64C26.962,29.345,25.491,30.113,24.227,31.088 M37.739,9.843
	c-0.387,0.905-0.919,1.811-1.248,2.499c-0.863,1.795-1.724,3.418-2.5,5c-1.7,3.458-3.555,6.688-5.312,9.686
	c-0.423-0.124-0.861-0.233-1.094-0.548c3.395-7.021,7.103-13.727,10.936-20.308C39.022,7.193,38.285,8.569,37.739,9.843"/>
</svg>
