<?xml version="1.0" encoding="utf-8"?>
<!-- Generator: Adobe Illustrator 14.0.0, SVG Export Plug-In . SVG Version: 6.00 Build 43363)  -->
<!DOCTYPE svg PUBLIC "-//W3C//DTD SVG 1.1//EN" "http://www.w3.org/Graphics/SVG/1.1/DTD/svg11.dtd">
<svg version="1.1" id="Layer_1" xmlns="http://www.w3.org/2000/svg" xmlns:xlink="http://www.w3.org/1999/xlink" x="0px" y="0px"
	 width="60px" height="40px" viewBox="0 0 60 40" enable-background="new 0 0 60 40" xml:space="preserve">
<path d="M51.939,14.547c-1.93-2.264-4.584-4.967-7.68-6.239c-3.379-1.39-9.242-1.688-12.24-1.681
	c-7.665,0.017-13.183,1.011-18.719,4.32c-2.951,1.763-8.705,5.26-9.121,8.88c-0.402,3.507,4.432,7.392,7.44,9.36
	c10.463,6.843,25.501,7.154,36.718,1.92c3.662-1.709,9.244-3.902,9.121-8.4C57.385,19.938,53.76,16.681,51.939,14.547
	 M34.418,15.027c-0.262,3.03-3.442,4.692-5.759,3.6C29.331,16.212,31.57,13.066,34.418,15.027 M9.22,21.268
	c2.743-4.055,7.245-6.354,12.239-8.16c-2.058,5.309-0.961,13.235,3.841,15.6C18.422,28.702,12.892,25.275,9.22,21.268
	 M24.579,19.347c1.065,4.403,6.894,6.265,10.8,3.841C34.297,27.277,22.461,26.824,24.579,19.347 M37.301,29.188
	c0.447-1.648,2.01-1.593,2.879-2.88c2.971-4.397,0.469-11.668-3.119-14.16c7.658-0.218,12.553,4.407,15.598,9.6
	C49.406,26.095,43.334,27.625,37.301,29.188"/>
</svg>
