<?xml version="1.0" encoding="utf-8"?>
<!-- Generator: Adobe Illustrator 14.0.0, SVG Export Plug-In . SVG Version: 6.00 Build 43363)  -->
<!DOCTYPE svg PUBLIC "-//W3C//DTD SVG 1.1//EN" "http://www.w3.org/Graphics/SVG/1.1/DTD/svg11.dtd">
<svg version="1.1" id="Layer_1" xmlns="http://www.w3.org/2000/svg" xmlns:xlink="http://www.w3.org/1999/xlink" x="0px" y="0px"
	 width="53px" height="35px" viewBox="0 0 53 35" enable-background="new 0 0 53 35" xml:space="preserve">
<path fill-rule="evenodd" clip-rule="evenodd" fill="#37B34A" d="M34.439,13.925c3.392,0.449,7.266,2.918,5.513,6.158
	c0.944,1.493,1.79,3.35,0.771,4.617c2.247,3.937-1.628,6.715-4.874,6.798c-0.399,0.241-0.668,0.614-1.154,0.771
	c-6.011-0.257-13.767-0.194-21.163-0.643c-0.691-0.469-1.604-0.991-1.796-2.054c-0.046-0.254,0.24-0.473,0.256-0.769
	c0.03-0.542-0.391-1.165-0.385-1.538c0.008-0.419,0.343-0.866,0.385-1.285c0.418-4.184-0.296-9.259,0-12.953
	c0.673-0.453,1.138-0.075,1.796,0.127c3.199-0.273,6.59,0.412,9.492-0.896c2.729-1.232,4.29-5.143,4.618-8.979
	C33.258,0.442,37.197,9.322,34.439,13.925 M31.617,13.413c1.501-1.782,1.997-7.848-1.153-8.209
	c-0.438,2.127-1.484,5.131-2.951,7.055c-0.552,0.723-2.03,2.222-2.693,2.438c-0.604,0.193-1.685,0.019-2.566,0.127
	c-2.757,0.341-5.428,0.386-7.823,0.513c0.245,4.945-0.068,10.198,0,13.852c5.084,0.663,10.645,0.695,15.391,0.385
	c-1.381-1.407-0.738-3.642,0.257-5.003c-0.601-0.915-0.123-2.008,0.257-2.947c-2.423-1.522-0.413-4.313,1.025-5.517
	c-0.671-0.518-0.965-1.216-0.77-2.309C30.874,13.612,31.445,13.711,31.617,13.413 M37.901,17.773
	c-0.106-0.656-0.7-0.747-1.282-1.154c-1.298,1.229-4.642,1.081-4.616,3.208C34.049,20.965,38.313,20.279,37.901,17.773
	 M32.898,22.264c-0.336,0.542-0.682,1.526-0.511,2.18c1.974,0.237,6.56,0.066,6.286-2.694C36.91,22.887,35.214,22.521,32.898,22.264
	 M32.257,26.624c-0.194,0.615-0.91,0.71-0.769,1.667c2.474,1.204,8.052,0.959,7.439-2.437C37.047,26.378,34.49,26.873,32.257,26.624
	"/>
</svg>
