<?xml version="1.0" encoding="utf-8"?>
<!-- Generator: Adobe Illustrator 14.0.0, SVG Export Plug-In . SVG Version: 6.00 Build 43363)  -->
<!DOCTYPE svg PUBLIC "-//W3C//DTD SVG 1.1//EN" "http://www.w3.org/Graphics/SVG/1.1/DTD/svg11.dtd">
<svg version="1.1" id="Layer_1" xmlns="http://www.w3.org/2000/svg" xmlns:xlink="http://www.w3.org/1999/xlink" x="0px" y="0px"
	 width="53px" height="35px" viewBox="0 0 53 35" enable-background="new 0 0 53 35" xml:space="preserve">
<path fill="#37B34A" d="M38.561,26.762c-0.365-1.362-0.526-2.861-0.983-3.938c-1.183-2.786-3.877-3.356-6.769-4.306
	c0.308-0.961,1.211-1.272,1.725-1.969c3.167-4.282-0.206-10.085-3.444-12.181c-2.942-1.902-5.613-0.123-6.893,2.091
	c-1.036,1.794-1.445,4.6-1.107,6.399c0.256,1.365,1.886,3.433,1.723,4.43c-0.188,1.138-2.028,1.251-3.57,1.722
	c-1.259,0.387-3.035,1.041-3.691,1.602c-1.758,1.501-2.021,4.456-1.846,6.768c0.115,1.529-0.165,3.385,1.107,4.061
	c6.754-0.889,16.092,0.329,23.133-0.123c0.27-0.344,0.793-0.438,1.229-0.615C39.673,29.463,38.925,28.109,38.561,26.762
	 M30.316,28.729c-4.204,0.098-9.631-0.409-14.396-0.367c-1.197-5.633,4.134-6.938,8.244-7.63c0.677-1.072,1.78-1.775,1.724-3.077
	c-0.07-1.582-2.272-2.667-2.708-4.429c-0.38-1.536,0.23-3.884,0.984-5.045c0.68-1.048,2.132-2.307,3.814-1.845
	c1.924,0.527,4.348,3.655,3.938,5.783c-0.1,0.501-0.466,1.3-0.736,1.723c-0.72,1.115-2.695,1.505-2.953,3.076
	c-0.293,1.773,0.854,3.345,1.599,4.429c1.454,0.285,2.772,0.734,4.184,0.738c1.437,0.853,2.695,3.516,2.706,5.782
	C35.626,28.926,32.754,28.674,30.316,28.729"/>
</svg>
