<?xml version="1.0" encoding="utf-8"?>
<!-- Generator: Adobe Illustrator 14.0.0, SVG Export Plug-In . SVG Version: 6.00 Build 43363)  -->
<!DOCTYPE svg PUBLIC "-//W3C//DTD SVG 1.1//EN" "http://www.w3.org/Graphics/SVG/1.1/DTD/svg11.dtd">
<svg version="1.1" id="Layer_1" xmlns="http://www.w3.org/2000/svg" xmlns:xlink="http://www.w3.org/1999/xlink" x="0px" y="0px"
	 width="60px" height="40px" viewBox="0 0 60 40" enable-background="new 0 0 60 40" xml:space="preserve">
<path d="M45.68,30.783c-0.45-1.68-0.648-3.527-1.213-4.854c-1.458-3.437-4.779-4.14-8.342-5.309
	c0.377-1.185,1.489-1.569,2.123-2.427c3.904-5.279-0.253-12.433-4.245-15.016c-3.625-2.344-6.917-0.151-8.495,2.578
	c-1.278,2.211-1.783,5.669-1.365,7.888c0.315,1.683,2.324,4.231,2.124,5.46c-0.231,1.403-2.5,1.542-4.4,2.124
	c-1.552,0.476-3.741,1.283-4.55,1.972c-2.167,1.851-2.491,5.494-2.275,8.343c0.143,1.886-0.204,4.171,1.365,5.005
	c8.324-1.096,19.835,0.406,28.515-0.15c0.335-0.424,0.979-0.54,1.517-0.76C47.051,34.113,46.128,32.444,45.68,30.783 M35.52,33.209
	c-5.181,0.12-11.874-0.504-17.748-0.455c-1.475-6.941,5.097-8.551,10.163-9.404c0.834-1.322,2.194-2.188,2.123-3.791
	c-0.085-1.951-2.8-3.29-3.336-5.461c-0.47-1.894,0.284-4.787,1.213-6.219c0.838-1.291,2.628-2.844,4.702-2.274
	c2.371,0.65,5.358,4.506,4.854,7.129c-0.12,0.618-0.575,1.603-0.91,2.123c-0.886,1.374-3.32,1.856-3.64,3.792
	c-0.361,2.186,1.054,4.124,1.971,5.461c1.794,0.352,3.417,0.905,5.157,0.91c1.771,1.05,3.321,4.332,3.337,7.127
	C42.063,33.449,38.523,33.14,35.52,33.209"/>
</svg>
