<?xml version="1.0" encoding="utf-8"?>
<!-- Generator: Adobe Illustrator 16.0.0, SVG Export Plug-In . SVG Version: 6.00 Build 0)  -->
<!DOCTYPE svg PUBLIC "-//W3C//DTD SVG 1.1//EN" "http://www.w3.org/Graphics/SVG/1.1/DTD/svg11.dtd">
<svg version="1.1" id="Calque_1" xmlns="http://www.w3.org/2000/svg" xmlns:xlink="http://www.w3.org/1999/xlink" x="0px" y="0px"
	 width="20px" height="20px" viewBox="0 0 20 20" enable-background="new 0 0 20 20" xml:space="preserve">
<g>
	<path fill-rule="evenodd" clip-rule="evenodd" d="M18.383,15.938c-1.93,0.666-4.746,0.59-7.172,0.314
		c-3.156-0.357-5.579-0.797-8.331-0.633c-0.466,0.029-1.215,0.479-1.792,0.213c-0.396-0.184-0.781-1.32-0.739-1.9
		c0.026-0.355,0.341-0.576,0.42-0.949c0.179-0.822,0.03-2.194,0-3.374C0.718,7.44,0.332,5.476,0.56,3.703
		C5.917,3.158,12.28,4.212,18.278,4.23c0.261,0.16,0.429,0.414,0.843,0.422c-0.246,0.431,0.475,0.782,0.529,1.266
		c0.047,0.446-0.385,0.783-0.529,1.371C18.514,9.731,19.478,13.639,18.383,15.938z M8.996,8.238
		c1.533-0.648,3.065-1.293,4.431-2.109C10.66,5.941,7.825,5.764,5.095,5.812C6.467,6.548,7.686,7.44,8.996,8.238z M2.774,13.406
		c5.364-0.281,8.917,1.074,13.71,0.525c0.45-1.945,0.88-4.323,0.635-6.433c-1.334,0.426-2.554,0.879-3.903,1.478
		c-1.609,0.712-3.077,2.153-5.063,1.582c-1.397-1.697-3.36-2.829-5.8-3.481C2.574,8.928,2.317,11.494,2.774,13.406z"/>
</g>
</svg>
