<?xml version="1.0" encoding="utf-8"?>
<!-- Generator: Adobe Illustrator 14.0.0, SVG Export Plug-In . SVG Version: 6.00 Build 43363)  -->
<!DOCTYPE svg PUBLIC "-//W3C//DTD SVG 1.1//EN" "http://www.w3.org/Graphics/SVG/1.1/DTD/svg11.dtd">
<svg version="1.1" id="Layer_1" xmlns="http://www.w3.org/2000/svg" xmlns:xlink="http://www.w3.org/1999/xlink" x="0px" y="0px"
	 width="53px" height="35px" viewBox="0 0 53 35" enable-background="new 0 0 53 35" xml:space="preserve">
<path fill="#39B54A" d="M40.23,13.521c-1.254-1.47-2.979-3.227-4.99-4.054c-2.195-0.903-6.004-1.096-7.953-1.093
	c-4.979,0.011-8.564,0.657-12.163,2.808c-1.917,1.146-5.656,3.418-5.927,5.771c-0.261,2.277,2.88,4.801,4.835,6.083
	c6.798,4.444,16.571,4.646,23.858,1.246c2.379-1.109,6.006-2.535,5.926-5.457C43.77,17.024,41.414,14.908,40.23,13.521
	 M28.848,13.833c-0.172,1.969-2.237,3.049-3.743,2.339C25.541,14.603,26.996,12.56,28.848,13.833 M12.474,17.888
	c1.782-2.635,4.708-4.129,7.953-5.302c-1.337,3.45-0.625,8.6,2.495,10.137C18.453,22.719,14.859,20.492,12.474,17.888 M22.453,16.64
	c0.692,2.86,4.479,4.071,7.018,2.495C28.768,21.793,21.078,21.5,22.453,16.64 M30.721,23.035c0.289-1.072,1.305-1.035,1.869-1.871
	c1.932-2.857,0.307-7.583-2.025-9.202c4.977-0.141,8.156,2.864,10.135,6.237C38.586,21.023,34.641,22.02,30.721,23.035"/>
</svg>
