<?xml version="1.0" encoding="utf-8"?>
<!-- Generator: Adobe Illustrator 14.0.0, SVG Export Plug-In . SVG Version: 6.00 Build 43363)  -->
<!DOCTYPE svg PUBLIC "-//W3C//DTD SVG 1.1//EN" "http://www.w3.org/Graphics/SVG/1.1/DTD/svg11.dtd">
<svg version="1.1" id="Layer_1" xmlns="http://www.w3.org/2000/svg" xmlns:xlink="http://www.w3.org/1999/xlink" x="0px" y="0px"
	 width="53px" height="35px" viewBox="0 0 53 35" enable-background="new 0 0 53 35" xml:space="preserve">
<path d="M40.244,13.516c-1.255-1.472-2.98-3.23-4.995-4.058c-2.198-0.904-6.011-1.098-7.961-1.093
	c-4.985,0.011-8.574,0.657-12.175,2.81c-1.92,1.146-5.662,3.42-5.932,5.776c-0.262,2.28,2.882,4.807,4.839,6.088
	c6.805,4.451,16.587,4.653,23.883,1.248c2.381-1.11,6.013-2.538,5.932-5.463C43.786,17.023,41.429,14.905,40.244,13.516
	 M28.848,13.829c-0.17,1.972-2.238,3.052-3.746,2.341C25.539,14.599,26.996,12.553,28.848,13.829 M12.459,17.888
	c1.784-2.637,4.712-4.133,7.96-5.308c-1.338,3.453-0.625,8.608,2.499,10.146C18.444,22.724,14.847,20.495,12.459,17.888
	 M22.448,16.639c0.693,2.863,4.484,4.074,7.024,2.498C28.77,21.797,21.071,21.502,22.448,16.639 M30.724,23.039
	c0.29-1.072,1.307-1.036,1.872-1.873c1.932-2.86,0.304-7.589-2.029-9.21c4.981-0.142,8.164,2.866,10.146,6.244
	C38.597,21.027,34.646,22.022,30.724,23.039"/>
</svg>
