<?xml version="1.0" encoding="utf-8"?>
<!-- Generator: Adobe Illustrator 16.0.0, SVG Export Plug-In . SVG Version: 6.00 Build 0)  -->
<!DOCTYPE svg PUBLIC "-//W3C//DTD SVG 1.1//EN" "http://www.w3.org/Graphics/SVG/1.1/DTD/svg11.dtd">
<svg version="1.1" id="Calque_1" xmlns="http://www.w3.org/2000/svg" xmlns:xlink="http://www.w3.org/1999/xlink" x="0px" y="0px"
	 width="20px" height="20px" viewBox="0 0 20 20" enable-background="new 0 0 20 20" xml:space="preserve">
<g>
	<path fill-rule="evenodd" clip-rule="evenodd" fill="#52B36E" d="M4.13,7.029c0.142,0.106,0.022,0.474,0.062,0.684
		C4.016,7.504,4.158,7.363,4.13,7.029z"/>
	<path fill-rule="evenodd" clip-rule="evenodd" fill="#52B36E" d="M15.126,12.496c0.312,0.037-0.012,0.307,0,0.437
		C14.993,12.894,15.067,12.55,15.126,12.496z"/>
	<path fill-rule="evenodd" clip-rule="evenodd" fill="#52B36E" d="M17.55,13.615c0.109-0.211,0.283,0.167,0.125,0.248
		C17.429,13.845,17.72,13.671,17.55,13.615z"/>
	<path fill-rule="evenodd" clip-rule="evenodd" fill="#52B36E" d="M15.562,13.988c0.127-0.055,0.123,0.315,0.186,0.124
		c0,0.247-0.115,0.645-0.186,0.932C15.483,14.863,15.575,14.312,15.562,13.988z"/>
	<path fill-rule="evenodd" clip-rule="evenodd" fill="#52B36E" d="M19.538,0.817c-0.648,6.616-0.727,12.414,0.123,18.949
		c-0.541,0.094-1.088,0.23-1.428-0.062c-2.025-0.054-4.408,0.096-6.586,0.187c-3.603,0.152-5.402-0.324-8.947-0.435
		c-0.732-0.022-1.793,0.088-2.05-0.31c-0.316-0.492,0.054-1.909,0.062-2.672c0.007-0.662-0.13-1.247-0.125-1.988
		c0.006-0.815-0.15-1.856-0.062-2.858c0.109-1.245-0.204-2.332-0.187-3.479C0.358,6.917,0.6,5.784,0.65,4.606
		c0.058-1.364,0.135-2.812,0.062-4.411c1.453-0.412,2.83,0.438,4.349,0.373c0.679-0.03,1.365-0.175,2.05-0.187
		c0.732-0.013,1.446,0.086,2.175,0.062c1.473-0.05,2.684-0.215,4.164-0.062c0.553,0.058,1.182,0.013,1.738,0
		c0.482-0.012,0.926,0.06,1.367,0.062C17.573,0.449,18.651,0.157,19.538,0.817z M2.328,3.737C1.862,4.352,1.788,5.516,1.707,6.47
		c-0.182,2.126,0.25,3.43,1.491,4.225c0.434,0.04,1.003,0.216,1.057,0.746c0.019,0.193-0.223,0.52-0.186,0.809
		c0.071,0.566,1.1,0.853,0.993,1.304c-0.175,0.744-1.365,0.064-2.299,0.187c-0.312,0.041-0.453,0.267-0.807,0.187
		c0,0.477,0,0.952,0,1.429c0.974-0.283,2.062-0.927,3.292-0.994c2.831-0.155,5.31,1.843,4.101,4.723
		c0.385-0.003,0.812,0.079,1.367,0.062c0.4-0.833,0.834-1.783,0.621-2.796c-0.188-0.888-0.922-2.156-1.615-2.548
		c-0.985-0.558-2.422-0.082-3.417-0.746c-1.36-1.38,0.908-1.792,1.615-2.299c0.483-0.346,0.859-0.564,1.305-0.931
		c0.332-0.274,0.73-0.616,0.808-0.746c0.654-1.103,0.197-3.255-0.559-4.101C8.941,4.385,7.894,4.381,7.919,3.426
		c0.402-0.364,1.391-0.141,1.615-0.684C7.266,3.074,3.663,1.973,2.328,3.737z M14.567,5.041c-0.373,0.619-2.133,0.009-2.113,1.181
		c0.789,0.165,1.865-0.197,2.424,0.497c0.002,0.599,0.225,0.976,0.186,1.616c0.234,0.094,0.457,0.104,0.684,0.062
		c-0.059-0.659,0.053-1.421-0.186-2.05c0.393-0.432,0.99-0.064,1.615-0.248c0.082-0.249,0.088-0.838,0.062-0.994
		c-1.43,0.414-1.867-0.643-1.678-2.05C14.089,2.613,14.427,4.412,14.567,5.041z M18.606,7.527c0.084-0.003,0.135,0.029,0.186,0.062
		c0.1-0.217-0.16-0.551-0.062-0.373C18.776,7.407,18.56,7.334,18.606,7.527z M15.126,12.933c-0.012-0.13,0.312-0.399,0-0.437
		C15.067,12.55,14.993,12.894,15.126,12.933z M15.81,13.863c0.121-0.41,0.229-0.814,0-1.057
		C15.646,13.139,15.501,13.642,15.81,13.863z M17.675,13.863c0.158-0.081-0.016-0.459-0.125-0.248
		C17.72,13.671,17.429,13.845,17.675,13.863z M15.562,15.044c0.07-0.287,0.186-0.685,0.186-0.932
		c-0.062,0.191-0.059-0.179-0.186-0.124C15.575,14.312,15.483,14.863,15.562,15.044z"/>
	<path fill-rule="evenodd" clip-rule="evenodd" fill="#52B36E" d="M18.729,7.216c-0.098-0.178,0.162,0.156,0.062,0.373
		c-0.051-0.033-0.102-0.065-0.186-0.062C18.56,7.334,18.776,7.407,18.729,7.216z"/>
	<path fill-rule="evenodd" clip-rule="evenodd" fill="#52B36E" d="M4.812,4.047c2.87-0.389,3.93,1.477,3.542,3.791
		c-0.183,1.09-0.817,2.166-1.74,2.547c-1.082,0.446-2.998-0.069-3.542-1.119C2.41,7.987,2.934,4.786,4.068,4.171
		C4.244,4.076,4.526,4.086,4.812,4.047z M4.192,7.713c-0.04-0.209,0.08-0.577-0.062-0.684C4.158,7.363,4.016,7.504,4.192,7.713z"/>
	<path fill-rule="evenodd" clip-rule="evenodd" fill="#52B36E" d="M15.81,12.807c0.229,0.242,0.121,0.646,0,1.057
		C15.501,13.642,15.646,13.139,15.81,12.807z"/>
</g>
</svg>
