<?xml version="1.0" encoding="utf-8"?>
<!-- Generator: Adobe Illustrator 14.0.0, SVG Export Plug-In . SVG Version: 6.00 Build 43363)  -->
<!DOCTYPE svg PUBLIC "-//W3C//DTD SVG 1.1//EN" "http://www.w3.org/Graphics/SVG/1.1/DTD/svg11.dtd">
<svg version="1.1" id="Layer_1" xmlns="http://www.w3.org/2000/svg" xmlns:xlink="http://www.w3.org/1999/xlink" x="0px" y="0px"
	 width="60px" height="40px" viewBox="0 0 60 40" enable-background="new 0 0 60 40" xml:space="preserve">
<path fill-rule="evenodd" clip-rule="evenodd" d="M39.636,14.67c3.539,0.467,7.582,3.045,5.754,6.424
	c0.984,1.562,1.866,3.497,0.805,4.818c2.344,4.108-1.699,7.009-5.087,7.095c-0.417,0.251-0.698,0.642-1.204,0.804
	c-6.271-0.266-14.367-0.202-22.084-0.67c-0.721-0.489-1.673-1.035-1.874-2.143c-0.049-0.266,0.25-0.492,0.267-0.802
	c0.031-0.568-0.408-1.217-0.401-1.606c0.008-0.437,0.357-0.902,0.401-1.34c0.437-4.366-0.31-9.662,0-13.517
	c0.703-0.475,1.188-0.079,1.874,0.133c3.337-0.286,6.876,0.429,9.904-0.937c2.847-1.284,4.475-5.365,4.818-9.368
	C38.402,0.601,42.514,9.867,39.636,14.67 M36.69,14.136c1.567-1.859,2.083-8.189-1.204-8.566c-0.456,2.22-1.547,5.355-3.078,7.361
	c-0.575,0.754-2.119,2.32-2.812,2.544c-0.63,0.203-1.758,0.02-2.677,0.132c-2.877,0.356-5.665,0.403-8.165,0.537
	c0.255,5.16-0.07,10.642,0,14.455c5.306,0.689,11.109,0.725,16.063,0.401c-1.44-1.468-0.772-3.801,0.267-5.22
	c-0.627-0.956-0.128-2.097,0.27-3.077c-2.53-1.59-0.431-4.5,1.068-5.757c-0.699-0.54-1.007-1.269-0.804-2.409
	C35.917,14.342,36.511,14.447,36.69,14.136 M43.25,18.686c-0.112-0.684-0.731-0.779-1.341-1.204
	c-1.352,1.283-4.841,1.128-4.816,3.345C39.229,22.017,43.678,21.301,43.25,18.686 M38.029,23.37
	c-0.354,0.569-0.714,1.596-0.536,2.276c2.061,0.247,6.847,0.071,6.559-2.812C42.213,24.021,40.444,23.641,38.029,23.37
	 M37.359,27.921c-0.205,0.642-0.95,0.743-0.803,1.74c2.58,1.257,8.402,1,7.763-2.544C42.357,27.666,39.688,28.181,37.359,27.921"/>
</svg>
