<?xml version="1.0" encoding="utf-8"?>
<!-- Generator: Adobe Illustrator 16.0.0, SVG Export Plug-In . SVG Version: 6.00 Build 0)  -->
<!DOCTYPE svg PUBLIC "-//W3C//DTD SVG 1.1//EN" "http://www.w3.org/Graphics/SVG/1.1/DTD/svg11.dtd">
<svg version="1.1" id="Calque_1" xmlns="http://www.w3.org/2000/svg" xmlns:xlink="http://www.w3.org/1999/xlink" x="0px" y="0px"
	 width="20px" height="20px" viewBox="0 0 20 20" enable-background="new 0 0 20 20" xml:space="preserve">
<g>
	<path fill-rule="evenodd" clip-rule="evenodd" fill="#52B36E" d="M9.155,19.058c0.214-0.033,0.238,0.123,0.474,0.068
		C9.613,19.225,9.071,19.282,9.155,19.058z"/>
	<path fill-rule="evenodd" clip-rule="evenodd" fill="#52B36E" d="M18.896,0.659c-0.578,3.252,0.499,6.595,0.608,9.875
		c0.025,0.724-0.14,1.517-0.134,2.301c0.011,1.962,0.041,3.79-0.338,5.411c0.022,0.367,0.283,0.683,0.135,1.015
		c-0.288,0.211-0.605,0.386-0.88,0.608c-3.331,0.079-7.073,0.167-11.025,0c-1.09-0.047-2.224,0.003-3.248,0
		c-1.575-0.003-2.901,0.395-3.991-0.269c-0.111-0.499,0.225-1.495,0.271-2.167c0.187-2.684-0.137-5.729,0-8.522
		C0.435,6.021,0.445,3.188,0.7,0.523c0.56-0.495,1.276-0.252,1.961-0.203c3.389,0.243,7.72,0.188,10.891-0.136
		c0.552-0.057,1.205-0.12,1.692-0.135C16.529,0.009,18.18-0.191,18.896,0.659z M12.604,2.146c-0.826,0.67-1.059,2.14-1.148,3.585
		c-0.074,1.171-0.066,2.216,0.202,3.248c-0.866,0.476-1.982-0.126-3.045,0.202c-0.082,0.65-0.009,1.069-0.134,1.828
		c1.252,0.112,2.587-0.161,3.111,0.879c-0.174,2.502-0.29,5.132,0.068,7.307c0.593-0.055,1.052,0.022,1.76,0
		c0.18-2.064-0.477-5.025-0.205-7.239c0.023-0.184,0.151-0.538,0.339-0.677c1.017-0.022,2.544-0.198,3.586-0.338
		c0.053-0.705-0.085-1.223-0.068-1.893c-1.33-0.174-2.43,0.216-3.651-0.339c0.076-0.358-0.263-0.532-0.339-0.879
		c-0.281-1.267,0.327-2.906,0.405-3.991c0.633-0.89,2-0.062,2.977-0.406c-0.017-0.785-0.074-0.978,0.068-1.692
		C15.078,1.906,13.632,1.314,12.604,2.146z M9.629,19.126c-0.236,0.055-0.26-0.102-0.474-0.068
		C9.071,19.282,9.613,19.225,9.629,19.126z"/>
</g>
</svg>
