<?xml version="1.0" encoding="utf-8"?>
<!-- Generator: Adobe Illustrator 14.0.0, SVG Export Plug-In . SVG Version: 6.00 Build 43363)  -->
<!DOCTYPE svg PUBLIC "-//W3C//DTD SVG 1.1//EN" "http://www.w3.org/Graphics/SVG/1.1/DTD/svg11.dtd">
<svg version="1.1" id="Layer_1" xmlns="http://www.w3.org/2000/svg" xmlns:xlink="http://www.w3.org/1999/xlink" x="0px" y="0px"
	 width="53px" height="35px" viewBox="0 0 53 35" enable-background="new 0 0 53 35" xml:space="preserve">
<path d="M38.549,26.753c-0.367-1.361-0.527-2.857-0.984-3.936c-1.182-2.785-3.873-3.353-6.76-4.3c0.306-0.96,1.208-1.272,1.72-1.967
	c3.165-4.279-0.204-10.077-3.439-12.17c-2.938-1.9-5.607-0.123-6.886,2.089c-1.034,1.792-1.443,4.594-1.105,6.392
	c0.255,1.364,1.884,3.43,1.721,4.426c-0.188,1.136-2.025,1.25-3.566,1.72c-1.257,0.386-3.032,1.039-3.688,1.599
	c-1.756,1.5-2.018,4.453-1.844,6.76c0.115,1.53-0.165,3.383,1.106,4.059c6.747-0.89,16.075,0.327,23.112-0.123
	c0.268-0.344,0.791-0.438,1.229-0.615C39.66,29.452,38.912,28.101,38.549,26.753 M30.314,28.719
	c-4.2,0.099-9.624-0.409-14.384-0.368c-1.195-5.627,4.13-6.93,8.237-7.622c0.676-1.071,1.778-1.773,1.722-3.073
	c-0.07-1.581-2.27-2.666-2.706-4.425c-0.38-1.535,0.231-3.879,0.984-5.04c0.679-1.047,2.129-2.305,3.812-1.844
	c1.922,0.527,4.342,3.651,3.933,5.777c-0.099,0.5-0.467,1.299-0.738,1.721c-0.717,1.113-2.689,1.504-2.949,3.073
	c-0.294,1.772,0.854,3.342,1.598,4.425c1.452,0.285,2.769,0.734,4.178,0.738c1.437,0.851,2.694,3.512,2.706,5.777
	C35.616,28.913,32.749,28.663,30.314,28.719"/>
</svg>
