<?xml version="1.0" encoding="utf-8"?>
<!-- Generator: Adobe Illustrator 14.0.0, SVG Export Plug-In . SVG Version: 6.00 Build 43363)  -->
<!DOCTYPE svg PUBLIC "-//W3C//DTD SVG 1.1//EN" "http://www.w3.org/Graphics/SVG/1.1/DTD/svg11.dtd">
<svg version="1.1" id="Layer_1" xmlns="http://www.w3.org/2000/svg" xmlns:xlink="http://www.w3.org/1999/xlink" x="0px" y="0px"
	 width="60px" height="40px" viewBox="0 0 60 40" enable-background="new 0 0 60 40" xml:space="preserve">
<path d="M46.969,23.82c0.468,2.05,0.35,4.508,0.396,6.833C47.477,28.152,48.264,25.555,46.969,23.82"/>
<path d="M47.459,32.551c0.03,0.338,0.065,0.673,0.115,0.996c-0.979,1.291-2.471,1.833-4.05,2.454
	c1.579-0.621,3.328-0.923,4.307-2.214C47.652,33.391,47.533,32.977,47.459,32.551"/>
<path d="M47.459,32.551c-0.054-0.613-0.08-1.25-0.094-1.897C47.337,31.298,47.352,31.937,47.459,32.551"/>
<path d="M47.574,33.547c-0.05-0.323-0.084-0.658-0.115-0.996c-0.108-0.614-0.122-1.253-0.094-1.897
	c-0.046-2.325,0.071-4.783-0.396-6.833c-2.249-1.4-4.499-2.801-6.521-4.429c0.156-0.293,0.448-0.453,0.368-0.983
	c-0.216-0.4-0.446-0.784-0.615-1.23c0.274-2.959,0.872-6.583,0.123-8.982c-0.67-0.725-1.52-1.269-2.338-1.845
	c-0.513-0.063-0.542,0.358-1.106,0.245C34.5,5.859,32.78,4.461,30.482,3.643c-0.177,0.069-0.3,0.191-0.37,0.369
	c-1.076,0.293-2.164,0.446-3.199,0.739c-1.03,0.29-1.974,0.814-2.952,0.983c-0.686,0.119-1.612-0.247-2.092,0.493
	c0.319,3.17-0.127,8.159-0.246,12.057c-2.41,1.143-4.843,2.695-7.875,2.83c-0.324,2.399-0.16,6.59-0.123,9.598
	c1.406,1.048,2.846,2.312,4.429,3.445c1.422,1.02,3.291,2.542,4.798,3.199c1.044,0.455,1.786-0.106,3.077-0.492
	c2.199-0.656,5.002-0.605,6.029-1.354c2.178,0.692,3.548,2.193,5.659,2.953c2.332-0.564,3.915-1.678,5.906-2.462
	C45.104,35.38,46.596,34.838,47.574,33.547 M24.576,8.934c1.555,1.068,3.458,1.792,5.168,2.705c0.155,2.612-0.053,5.533-0.247,8.982
	c-2.356-0.391-3.838-1.657-5.414-2.83C24.158,15.109,24.36,11.417,24.576,8.934 M21.993,34.526
	c-2.422-1.159-4.277-2.262-6.254-4.697c0.128-1.474-0.085-6.251-0.079-6.408c2.018,0.485,3.983,1.97,5.472,2.983
	C22.286,28.3,22.213,31.52,21.993,34.526 M22.854,25.175c-1.532-0.724-2.835-1.677-4.306-2.461c1.552-1.155,3.988-1.425,5.66-2.461
	c1.442,1.06,3.572,1.432,4.676,2.83C26.834,23.741,24.788,24.401,22.854,25.175 M29.375,33.541c-1.451,0.478-3.326,0.53-4.799,0.985
	c-0.085-1.946-0.154-4.261-0.246-6.522c1.117-1.465,3.529-1.637,5.414-2.337C30.622,27.789,29.801,31.42,29.375,33.541
	 M30.852,10.164c-1.625-0.837-3.544-1.378-4.799-2.584c1.545-0.465,3.114-0.906,4.675-1.353c1.755,0.583,3.485,1.191,4.923,2.092
	C34.255,9.137,32.539,9.636,30.852,10.164 M32.327,12.378c1.748-0.918,3.886-1.447,5.66-2.338c0.406,2.54-0.213,5.118-0.246,7.628
	c-1.787,0.959-3.724,1.771-5.66,2.584C32.016,17.292,32.506,15.018,32.327,12.378 M37.003,35.633
	c-1.631-0.271-3.316-1.512-4.798-2.338c0.109-2.975,0.354-5.307,0.369-7.875c1.294,0.593,2.438,1.336,3.814,1.846
	C37.127,29.679,36.998,32.373,37.003,35.633 M37.373,25.544c-1.95-0.223-3.198-1.956-4.922-2.462
	c1.415-1.332,3.582-1.914,5.414-2.83c1.813,1.263,3.97,2.181,5.412,3.814C41.34,24.1,39.464,25.781,37.373,25.544 M45.001,32.311
	c-1.49,1.217-3.657,1.757-5.659,2.461c0-3.05-0.146-3.695-0.124-6.644c1.808-0.859,3.771-1.562,6.029-1.969
	C45.266,27.865,44.96,30.55,45.001,32.311"/>
</svg>
