<?xml version="1.0" encoding="utf-8"?>
<!-- Generator: Adobe Illustrator 16.0.0, SVG Export Plug-In . SVG Version: 6.00 Build 0)  -->
<!DOCTYPE svg PUBLIC "-//W3C//DTD SVG 1.1//EN" "http://www.w3.org/Graphics/SVG/1.1/DTD/svg11.dtd">
<svg version="1.1" id="Calque_1" xmlns="http://www.w3.org/2000/svg" xmlns:xlink="http://www.w3.org/1999/xlink" x="0px" y="0px"
	 width="20px" height="20px" viewBox="0 0 20 20" enable-background="new 0 0 20 20" xml:space="preserve">
<g>
	<path fill="#52B36E" d="M13.326,18.428c0.283-0.049,0.383,0.086,0.636,0.064C13.974,18.217,13.399,18.254,13.326,18.428z"/>
	<path fill="#52B36E" d="M17.347,18.363c0.131,0.064,0.323,0.229,0.316-0.062C17.57,18.336,17.334,18.227,17.347,18.363z"/>
	<path fill="#52B36E" d="M19.514,0.944c-0.902-0.449-1.527-0.916-2.742-0.829c-0.83,0.06-1.883,0.308-2.871,0.447
		c-1.48,0.208-3.294,0.351-4.977,0.256C8.248,0.778,7.561,0.599,6.881,0.562C5.416,0.479,3.984,0.717,2.797,0.626
		c-0.737-0.059-1.45-0.435-2.106,0c0.001,3.811-0.263,7.481-0.192,10.72c0.059,2.582,0.249,5.176,0.064,7.721
		c0.196,0.293,0.352,0.627,0.639,0.83c4.647-0.529,9.89-0.018,14.102-0.191c0.904-0.037,2.066,0.025,2.426-0.512
		c0.29,0.133,0.927,0.264,1.339,0c0.167-0.408-0.048-0.908-0.065-1.275c-0.065-1.666,0.293-3.361,0.386-5.041
		C19.613,8.769,19.144,4.945,19.514,0.944z M13.326,18.428c0.073-0.174,0.647-0.211,0.636,0.064
		C13.709,18.514,13.609,18.379,13.326,18.428z M16.197,5.921c-0.625,0.456-1.029,1.637-1.404,2.489
		c-1.231,2.803-2.433,6.295-6.19,6.637c-1.556,0.141-2.513-0.355-3.446-1.086c1.136-0.477,5.028-1.779,2.872-2.999
		c-1.896,0.025-2.848-0.896-3.572-2.041C4.752,8.939,5.008,8.92,5.157,8.793c-0.33-0.84-1.146-1.194-1.148-2.361
		c0.45,0.335,1.136,1.331,1.787,0.51C5.494,6.479,5.087,6.12,4.583,5.858c0.012-0.767-0.611-1.153-0.574-1.979
		c1.82,0.828,3.998,1.837,6.125,1.915c0.249,0.009,0.782,0.545,1.149,0.447c0.739-0.2,0.146-1.362,0.511-1.915
		c0.756-0.668,3.285-0.717,2.936,0.766c0.397,0.748,1.431,0.097,2.042-0.063C16.961,5.21,16.242,5.552,16.197,5.921z M17.347,18.363
		c-0.013-0.137,0.224-0.027,0.316-0.062C17.67,18.592,17.478,18.428,17.347,18.363z"/>
</g>
</svg>
