<?xml version="1.0" encoding="utf-8"?>
<!-- Generator: Adobe Illustrator 16.0.0, SVG Export Plug-In . SVG Version: 6.00 Build 0)  -->
<!DOCTYPE svg PUBLIC "-//W3C//DTD SVG 1.1//EN" "http://www.w3.org/Graphics/SVG/1.1/DTD/svg11.dtd">
<svg version="1.1" id="Calque_1" xmlns="http://www.w3.org/2000/svg" xmlns:xlink="http://www.w3.org/1999/xlink" x="0px" y="0px"
	 width="20px" height="20px" viewBox="0 0 20 20" enable-background="new 0 0 20 20" xml:space="preserve">
<g id="XMLID_1_">
	<g>
		<path fill="#C03A2A" d="M17.53,7.98c0.05,3.63-3.04,5.28-5.521,6.66c-0.56,0.32-1.73,1.221-2.1,1.23
			c-0.61,0.02-2.58-1.71-2.9-2.021c-0.48-0.47-1.04-1.17-1.58-1.75C4.27,10.84,3.68,10.17,2.8,8.68C2.01,6.31,3.18,4.49,4.65,3.42
			c1.42-0.2,2.13-0.64,3.24-0.08c1.02,0.51,1.28,2.42,2.72,2.19c0.66-0.11,0.65-0.85,0.96-1.23c0.279-0.35,1.199-1.05,1.75-1.14
			C15.72,2.78,17.5,5.81,17.53,7.98z"/>
		<path fill="#C03A2A" d="M3.24,2.37c1.99-1,5.33-0.72,6.84,0.79c0.979-0.28,1.29-1.21,2.189-1.4c0.66-0.14,1.82,0.1,2.54,0.35
			c2.25,0.76,4.351,3.31,4.561,5.87c0.14,1.64-0.59,2.87-1.22,4.3c-1.091,0.87-1.91,2.05-3.341,2.8
			c-0.989,0.53-2.119,0.88-2.979,1.58c-0.44,0.35-0.93,1.1-1.4,1.14c-0.61,0.061-1.36-0.68-1.93-1.14
			c-1.64-1.34-3.62-2.47-4.56-4.38c-1.56-1.4-2.74-3-3.33-5.26c0.02,0.05,0-0.1,0-0.1C0.59,5.3,1.74,3.13,3.24,2.37z M7.01,13.85
			c0.32,0.311,2.29,2.04,2.9,2.021c0.37-0.01,1.54-0.91,2.1-1.23c2.48-1.38,5.57-3.029,5.521-6.66c-0.03-2.17-1.811-5.2-4.21-4.82
			C12.77,3.25,11.85,3.95,11.57,4.3c-0.311,0.38-0.301,1.12-0.96,1.23c-1.44,0.23-1.7-1.68-2.72-2.19C6.78,2.78,6.07,3.22,4.65,3.42
			C3.18,4.49,2.01,6.31,2.8,8.68c0.88,1.49,1.47,2.16,2.63,3.419C5.97,12.68,6.53,13.38,7.01,13.85z"/>
	</g>
	<g>
	</g>
</g>
</svg>
