<?xml version="1.0" encoding="utf-8"?>
<!-- Generator: Adobe Illustrator 14.0.0, SVG Export Plug-In . SVG Version: 6.00 Build 43363)  -->
<!DOCTYPE svg PUBLIC "-//W3C//DTD SVG 1.1//EN" "http://www.w3.org/Graphics/SVG/1.1/DTD/svg11.dtd">
<svg version="1.1" id="Layer_1" xmlns="http://www.w3.org/2000/svg" xmlns:xlink="http://www.w3.org/1999/xlink" x="0px" y="0px"
	 width="53px" height="35px" viewBox="0 0 53 35" enable-background="new 0 0 53 35" xml:space="preserve">
<path fill="#37B34A" d="M36.042,3.42c-0.967-0.721-2.464-0.813-3.449-1.804c-1.901-0.42-2.678,1.385-4.392,1.647
	c-0.756,2.199-1.854,3.856-2.901,5.802c-2.513,4.676-4.534,9.589-6.977,14.269c-0.1,0.24-0.589,0.09-0.549,0.471
	c-0.13,2.063-0.664,5.572-1.098,7.527c-0.135,0.605-0.542,0.883-0.392,1.254c0.1,0.248,1.115,0.875,1.568,0.861
	c0.566-0.016,1.265-0.703,1.881-1.098c1.882-1.201,3.779-2.508,5.332-3.605c0.297-0.646,0.66-1.221,1.255-1.568
	c1.561-3.307,3.483-6.557,5.331-10.271c1.252-2.513,2.716-5.097,3.92-7.763c0.357-0.787,1.154-2.097,1.177-2.743
	C36.785,5.376,35.979,4.341,36.042,3.42 M32.279,3.341c0.494-0.41,0.998,0.124,1.566,0.47c-1.621,3.699-3.908,6.987-5.802,10.507
	c-1.887,3.51-3.646,7.102-5.566,10.664c-0.219-0.07-0.388-0.189-0.627-0.234c-0.024-1.027,0.672-1.846,1.097-2.746
	c1.279-2.699,2.466-5.333,3.92-8.076c1.302-2.455,2.717-5.254,4.075-7.918C31.361,5.193,31.809,3.732,32.279,3.341 M21.146,21.375
	c2.568-5.606,5.552-11.547,8.545-16.779c0.275-0.118,0.572-0.212,0.705-0.47c0.141-0.022,0.16,0.073,0.078,0.078
	c-2.851,5.753-5.721,11.482-8.624,17.249c-0.417,0.828-0.613,1.744-1.254,2.432C19.979,23.197,20.799,22.131,21.146,21.375
	 M18.324,31.332c-0.012-0.377,0.074-0.658,0.234-0.863c0.17,0.17,0.428,0.252,0.628,0.393
	C19.008,31.127,18.708,31.273,18.324,31.332 M20.284,30.154c-0.663-0.201-0.929-0.795-1.49-1.1c0.174-1.496,0.477-2.865,0.784-4.232
	h0.236c0.227,0.141,0.366,0.367,0.471,0.629c1.412,0.189,2.397,1.113,3.685,1.645C23.029,28.406,21.552,29.176,20.284,30.154
	 M33.848,8.83c-0.39,0.908-0.924,1.817-1.255,2.509c-0.866,1.801-1.729,3.431-2.51,5.018c-1.706,3.471-3.567,6.713-5.331,9.723
	c-0.426-0.125-0.865-0.234-1.098-0.551c3.407-7.047,7.129-13.778,10.977-20.384C35.134,6.171,34.395,7.551,33.848,8.83"/>
</svg>
