<?xml version="1.0" encoding="utf-8"?>
<!-- Generator: Adobe Illustrator 14.0.0, SVG Export Plug-In . SVG Version: 6.00 Build 43363)  -->
<!DOCTYPE svg PUBLIC "-//W3C//DTD SVG 1.1//EN" "http://www.w3.org/Graphics/SVG/1.1/DTD/svg11.dtd">
<svg version="1.1" id="Layer_1" xmlns="http://www.w3.org/2000/svg" xmlns:xlink="http://www.w3.org/1999/xlink" x="0px" y="0px"
	 width="53px" height="35px" viewBox="0 0 53 35" enable-background="new 0 0 53 35" xml:space="preserve">
<path d="M36.035,3.431c-0.967-0.72-2.463-0.812-3.447-1.801c-1.9-0.42-2.676,1.383-4.389,1.645
	c-0.756,2.197-1.852,3.854-2.898,5.797c-2.511,4.672-4.532,9.582-6.971,14.257c-0.1,0.241-0.589,0.092-0.548,0.469
	c-0.13,2.063-0.663,5.568-1.096,7.522c-0.137,0.605-0.542,0.883-0.393,1.254c0.099,0.248,1.114,0.874,1.566,0.86
	c0.567-0.016,1.264-0.702,1.88-1.095c1.881-1.2,3.775-2.506,5.327-3.605c0.297-0.644,0.659-1.221,1.253-1.566
	c1.561-3.302,3.481-6.55,5.327-10.263c1.25-2.511,2.713-5.092,3.916-7.755c0.359-0.787,1.154-2.095,1.176-2.742
	C36.775,5.386,35.969,4.352,36.035,3.431 M32.273,3.353c0.494-0.41,0.998,0.123,1.566,0.47c-1.619,3.695-3.906,6.981-5.797,10.498
	c-1.885,3.508-3.643,7.096-5.56,10.655c-0.22-0.069-0.388-0.188-0.628-0.235c-0.025-1.027,0.671-1.845,1.097-2.744
	c1.277-2.694,2.463-5.327,3.918-8.067c1.299-2.453,2.713-5.249,4.073-7.912C31.357,5.203,31.803,3.743,32.273,3.353 M21.149,21.371
	c2.567-5.601,5.547-11.537,8.538-16.765c0.277-0.118,0.572-0.212,0.705-0.47c0.143-0.022,0.162,0.074,0.08,0.078
	c-2.85,5.749-5.717,11.473-8.618,17.235c-0.416,0.827-0.613,1.741-1.253,2.429C19.985,23.192,20.803,22.126,21.149,21.371
	 M18.33,31.32c-0.011-0.376,0.074-0.657,0.233-0.863c0.17,0.173,0.428,0.253,0.628,0.394C19.013,31.116,18.715,31.26,18.33,31.32
	 M20.288,30.145c-0.662-0.199-0.928-0.794-1.49-1.098c0.175-1.495,0.477-2.865,0.784-4.229h0.235
	c0.227,0.139,0.366,0.364,0.47,0.626c1.411,0.192,2.396,1.113,3.682,1.645C23.031,28.396,21.556,29.168,20.288,30.145 M33.84,8.836
	c-0.387,0.908-0.922,1.816-1.252,2.507c-0.865,1.799-1.727,3.428-2.508,5.014c-1.705,3.47-3.564,6.708-5.327,9.715
	c-0.424-0.123-0.863-0.234-1.096-0.55c3.403-7.041,7.124-13.768,10.968-20.368C35.127,6.18,34.387,7.559,33.84,8.836"/>
</svg>
