<?xml version="1.0" encoding="utf-8"?>
<!-- Generator: Adobe Illustrator 14.0.0, SVG Export Plug-In . SVG Version: 6.00 Build 43363)  -->
<!DOCTYPE svg PUBLIC "-//W3C//DTD SVG 1.1//EN" "http://www.w3.org/Graphics/SVG/1.1/DTD/svg11.dtd">
<svg version="1.1" id="Layer_1" xmlns="http://www.w3.org/2000/svg" xmlns:xlink="http://www.w3.org/1999/xlink" x="0px" y="0px"
	 width="53px" height="35px" viewBox="0 0 53 35" enable-background="new 0 0 53 35" xml:space="preserve">
<path fill="#39B54A" d="M41.636,20.074c0.435,1.904,0.325,4.189,0.367,6.353C42.107,24.102,42.839,21.686,41.636,20.074"/>
<path fill="#39B54A" d="M42.091,28.191c0.027,0.313,0.06,0.626,0.107,0.927c-0.911,1.2-2.298,1.703-3.766,2.281
	c1.468-0.578,3.094-0.859,4.004-2.059C42.271,28.971,42.16,28.587,42.091,28.191"/>
<path fill="#39B54A" d="M42.091,28.191c-0.05-0.571-0.075-1.162-0.088-1.765C41.976,27.026,41.99,27.62,42.091,28.191"/>
<path fill="#39B54A" d="M42.198,29.118c-0.048-0.301-0.078-0.613-0.107-0.927c-0.101-0.571-0.115-1.165-0.088-1.765
	c-0.042-2.163,0.067-4.448-0.367-6.353c-2.091-1.303-4.183-2.605-6.064-4.119c0.146-0.273,0.419-0.422,0.343-0.915
	c-0.2-0.372-0.413-0.729-0.571-1.144c0.256-2.752,0.812-6.122,0.114-8.353c-0.623-0.673-1.413-1.179-2.174-1.714
	c-0.478-0.059-0.503,0.333-1.029,0.227c-2.212-0.685-3.811-1.984-5.948-2.745c-0.164,0.064-0.28,0.178-0.343,0.343
	c-1,0.272-2.012,0.415-2.976,0.687c-0.958,0.271-1.835,0.757-2.744,0.915c-0.638,0.111-1.499-0.229-1.946,0.458
	c0.297,2.948-0.119,7.586-0.228,11.211c-2.241,1.063-4.503,2.506-7.322,2.631c-0.301,2.231-0.149,6.126-0.114,8.923
	c1.308,0.977,2.646,2.15,4.118,3.203c1.322,0.949,3.06,2.363,4.462,2.976c0.971,0.424,1.66-0.099,2.86-0.457
	c2.046-0.61,4.652-0.564,5.605-1.26c2.025,0.645,3.3,2.041,5.263,2.747c2.169-0.526,3.64-1.561,5.492-2.289
	C39.9,30.821,41.287,30.318,42.198,29.118 M20.814,6.232c1.446,0.994,3.214,1.666,4.806,2.516c0.144,2.428-0.049,5.144-0.229,8.352
	c-2.191-0.363-3.569-1.542-5.034-2.631C20.425,11.974,20.613,8.54,20.814,6.232 M18.412,30.027
	c-2.252-1.078-3.977-2.102-5.814-4.367c0.119-1.369-0.08-5.813-0.074-5.958c1.876,0.452,3.704,1.832,5.087,2.773
	C18.684,24.238,18.616,27.233,18.412,30.027 M19.212,21.332c-1.425-0.672-2.636-1.559-4.004-2.288
	c1.443-1.073,3.708-1.325,5.262-2.288c1.341,0.985,3.322,1.332,4.348,2.631C22.913,19.999,21.01,20.614,19.212,21.332
	 M25.276,29.111c-1.348,0.444-3.092,0.493-4.461,0.916c-0.08-1.809-0.144-3.961-0.229-6.064c1.039-1.361,3.281-1.521,5.034-2.173
	C26.435,23.763,25.672,27.139,25.276,29.111 M26.649,7.375c-1.51-0.778-3.295-1.281-4.462-2.403
	c1.437-0.432,2.896-0.842,4.348-1.258c1.63,0.542,3.24,1.107,4.576,1.945C29.813,6.421,28.217,6.885,26.649,7.375 M28.022,9.434
	c1.624-0.854,3.61-1.345,5.261-2.173c0.378,2.361-0.199,4.759-0.228,7.093c-1.663,0.893-3.464,1.647-5.263,2.403
	C27.73,14.002,28.187,11.889,28.022,9.434 M32.369,31.056c-1.518-0.251-3.085-1.404-4.461-2.172
	c0.102-2.767,0.329-4.935,0.342-7.324c1.203,0.552,2.267,1.244,3.547,1.717C32.483,25.521,32.363,28.025,32.369,31.056
	 M32.713,21.676c-1.813-0.207-2.974-1.818-4.576-2.288c1.315-1.239,3.329-1.78,5.033-2.631c1.687,1.173,3.691,2.027,5.033,3.547
	C36.402,20.332,34.656,21.896,32.713,21.676 M39.806,27.968c-1.386,1.131-3.401,1.633-5.263,2.289c0-2.838-0.135-3.437-0.115-6.179
	c1.682-0.8,3.506-1.451,5.605-1.83C40.051,23.834,39.768,26.33,39.806,27.968"/>
</svg>
