<?xml version="1.0" encoding="utf-8"?>
<!-- Generator: Adobe Illustrator 14.0.0, SVG Export Plug-In . SVG Version: 6.00 Build 43363)  -->
<!DOCTYPE svg PUBLIC "-//W3C//DTD SVG 1.1//EN" "http://www.w3.org/Graphics/SVG/1.1/DTD/svg11.dtd">
<svg version="1.1" id="Layer_1" xmlns="http://www.w3.org/2000/svg" xmlns:xlink="http://www.w3.org/1999/xlink" x="0px" y="0px"
	 width="53px" height="35px" viewBox="0 0 53 35" enable-background="new 0 0 53 35" xml:space="preserve">
<path fill-rule="evenodd" clip-rule="evenodd" d="M34.439,13.925c3.393,0.447,7.269,2.918,5.517,6.158
	c0.943,1.495,1.789,3.352,0.771,4.619c2.248,3.937-1.629,6.717-4.875,6.8c-0.4,0.241-0.668,0.614-1.155,0.769
	c-6.013-0.254-13.771-0.192-21.167-0.641c-0.692-0.468-1.604-0.993-1.797-2.055c-0.047-0.254,0.24-0.472,0.256-0.769
	c0.03-0.544-0.391-1.167-0.385-1.539c0.007-0.418,0.343-0.863,0.385-1.283c0.419-4.186-0.296-9.262,0-12.958
	c0.673-0.456,1.138-0.076,1.796,0.128c3.199-0.274,6.591,0.412,9.494-0.898c2.729-1.231,4.289-5.143,4.619-8.979
	C33.258,0.438,37.199,9.319,34.439,13.925 M31.617,13.411c1.502-1.782,1.997-7.848-1.155-8.209c-0.437,2.127-1.482,5.132-2.95,7.055
	c-0.551,0.723-2.031,2.224-2.694,2.438c-0.604,0.195-1.686,0.02-2.566,0.127c-2.758,0.341-5.43,0.387-7.826,0.514
	c0.246,4.945-0.067,10.2,0,13.856c5.086,0.66,10.648,0.692,15.397,0.383c-1.382-1.407-0.741-3.643,0.256-5.002
	c-0.602-0.917-0.124-2.01,0.256-2.951c-2.424-1.521-0.413-4.313,1.023-5.517c-0.668-0.518-0.964-1.216-0.769-2.31
	C30.876,13.61,31.445,13.709,31.617,13.411 M37.904,17.774c-0.107-0.656-0.702-0.748-1.285-1.155
	c-1.295,1.229-4.642,1.082-4.616,3.206C34.05,20.967,38.313,20.28,37.904,17.774 M32.9,22.264c-0.338,0.544-0.683,1.531-0.514,2.182
	c1.976,0.237,6.562,0.068,6.287-2.695C36.911,22.887,35.216,22.521,32.9,22.264 M32.26,26.626c-0.198,0.614-0.913,0.711-0.771,1.667
	c2.473,1.204,8.054,0.959,7.439-2.438C37.048,26.382,34.492,26.874,32.26,26.626"/>
</svg>
