<?xml version="1.0" encoding="utf-8"?>
<!-- Generator: Adobe Illustrator 16.0.0, SVG Export Plug-In . SVG Version: 6.00 Build 0)  -->
<!DOCTYPE svg PUBLIC "-//W3C//DTD SVG 1.1//EN" "http://www.w3.org/Graphics/SVG/1.1/DTD/svg11.dtd">
<svg version="1.1" id="Calque_1" xmlns="http://www.w3.org/2000/svg" xmlns:xlink="http://www.w3.org/1999/xlink" x="0px" y="0px"
	 width="20px" height="20px" viewBox="0 0 20 20" enable-background="new 0 0 20 20" xml:space="preserve">
<g>
	<path fill="#C03A2A" d="M9.204,6.579c1.495-0.181,2.396,1.171,1.578,2.629c1.094,0.189,3.142,0.032,3.155,1.58
		c-0.65,0.551-2.125,0.16-3.155-0.088c-0.323,1.09,0.176,1.985,0,2.893c-0.774,0.404-1.438-0.149-2.017-0.438
		c0.153-0.777-0.007-1.99,0-2.629C7.7,10.229,5.67,10.498,5.96,8.946c1.02-0.457,2.007-0.222,2.805,0.175
		C9.298,8.584,9.01,7.226,9.204,6.579z"/>
	<path fill="#C03A2A" d="M10.08,3.16c0.984-0.284,1.285-1.214,2.191-1.403c0.662-0.138,1.814,0.107,2.543,0.352
		c2.25,0.757,4.35,3.312,4.558,5.873c0.134,1.636-0.593,2.868-1.228,4.295c-1.088,0.877-1.904,2.054-3.33,2.806
		c-1,0.524-2.121,0.883-2.981,1.576c-0.438,0.354-0.935,1.098-1.401,1.141c-0.611,0.058-1.363-0.68-1.929-1.141
		c-1.644-1.336-3.627-2.468-4.559-4.382c-1.567-1.399-2.747-2.995-3.331-5.259c0.017,0.066-0.001-0.153,0-0.087
		C0.589,5.31,1.743,3.127,3.242,2.373C5.23,1.371,8.571,1.653,10.08,3.16z M5.435,12.102c0.531,0.574,1.092,1.279,1.578,1.752
		c0.313,0.308,2.29,2.041,2.893,2.019c0.378-0.017,1.547-0.916,2.104-1.229c2.479-1.381,5.571-3.028,5.521-6.662
		c-0.029-2.168-1.812-5.196-4.206-4.821c-0.56,0.087-1.478,0.793-1.753,1.139c-0.309,0.382-0.301,1.12-0.965,1.227
		c-1.44,0.235-1.694-1.677-2.718-2.191C6.777,2.778,6.07,3.216,4.646,3.422c-1.463,1.063-2.632,2.892-1.842,5.26
		C3.676,10.166,4.272,10.842,5.435,12.102z"/>
</g>
</svg>
