<?xml version="1.0" encoding="utf-8"?>
<!-- Generator: Adobe Illustrator 16.0.0, SVG Export Plug-In . SVG Version: 6.00 Build 0)  -->
<!DOCTYPE svg PUBLIC "-//W3C//DTD SVG 1.1//EN" "http://www.w3.org/Graphics/SVG/1.1/DTD/svg11.dtd">
<svg version="1.1" id="Calque_1" xmlns="http://www.w3.org/2000/svg" xmlns:xlink="http://www.w3.org/1999/xlink" x="0px" y="0px"
	 width="20px" height="20px" viewBox="0 0 20 20" enable-background="new 0 0 20 20" xml:space="preserve">
<g>
	<path fill-rule="evenodd" clip-rule="evenodd" fill="#52B36E" d="M18.77,3.243c-0.568,0.398-1.397,0.536-2.024,0.877
		c-0.441-0.189-0.856-0.404-1.08-0.811C16.306,2.676,18.519,1.572,18.77,3.243z"/>
	<path fill-rule="evenodd" clip-rule="evenodd" fill="#52B36E" d="M19.783,8.306c-0.465,0.084-1.243,0.268-1.892,0.134
		c-0.535-0.11-1.783-0.955-0.877-1.281c0.065-0.024,1.57,0.018,1.89,0.067c0.407,0.062,0.622,0.267,0.879,0.473
		C19.783,7.901,19.783,8.103,19.783,8.306z"/>
	<path fill-rule="evenodd" clip-rule="evenodd" fill="#52B36E" d="M19.378,11.613c0,0.225,0,0.451,0,0.674
		c-1.322,0.125-3.306,0.041-3.038-1.28C17.336,11.017,18.604,11.055,19.378,11.613z"/>
	<path fill-rule="evenodd" clip-rule="evenodd" fill="#52B36E" d="M19.242,15.73c-1.21,0.127-2.79-0.475-3.443-1.348
		c-0.05-0.299,0.219-0.279,0.271-0.475c1.154,0.287,2.157,0.721,3.172,1.148C19.199,15.383,19.331,15.533,19.242,15.73z"/>
	<path fill-rule="evenodd" clip-rule="evenodd" fill="#52B36E" d="M13.099,2.163c0.506,0.194,1.104,0.475,1.216,0.945
		c0.095,0.404-0.091,0.954-0.067,1.484c0.092,2.179,0.381,5.151,0.473,7.29c0.045,1.051-0.306,2.125-0.136,3.443
		c-0.757,0.588-1.673,0.16-2.497-0.066c-0.908-0.25-1.909-0.408-2.835-0.676c-0.307,1.072,0.141,2.41-0.81,2.971
		c-0.954,0.562-3.272,0.223-3.982-0.475c-1.044-1.021-0.216-2.275-0.607-3.576c-0.737-0.395-2.147-0.15-2.701-0.066
		c-1.342-0.768-0.813-3.396-0.877-5.469C0.259,7.517,0.122,7.1,0.341,6.754c1.318-0.127,2.622,0.016,3.78-0.405
		c0.73-0.265,1.441-0.746,2.161-1.08c2.122-0.989,4.342-1.92,6.615-2.903C12.935,2.268,13.002,2.201,13.099,2.163z M12.83,3.918
		c-2.662,1.231-5.571,2.215-7.966,3.713c-0.332,1.667-0.094,2.879,0,4.589c2.564,0.762,5.879,1.355,8.235,1.889
		C13.358,10.672,13.097,7.078,12.83,3.918z M1.353,8.306c-0.041,1.575-0.033,1.889,0,3.443c0.906,0.134,1.527,0.085,2.229,0.067
		c0.155-1.35,0.191-2.497-0.068-3.916C2.817,8.06,1.869,7.966,1.353,8.306z M5.471,16.475c0.685,0.271,1.63,0.242,2.161-0.135
		c0.277-0.602,0.193-1.309,0.135-2.092c-0.869-0.123-1.68-0.303-2.498-0.475C5.139,14.75,5.139,15.822,5.471,16.475z"/>
</g>
</svg>
