<?xml version="1.0" encoding="utf-8"?>
<!-- Generator: Adobe Illustrator 14.0.0, SVG Export Plug-In . SVG Version: 6.00 Build 43363)  -->
<!DOCTYPE svg PUBLIC "-//W3C//DTD SVG 1.1//EN" "http://www.w3.org/Graphics/SVG/1.1/DTD/svg11.dtd">
<svg version="1.1" id="Layer_1" xmlns="http://www.w3.org/2000/svg" xmlns:xlink="http://www.w3.org/1999/xlink" x="0px" y="0px"
	 width="20px" height="20px" viewBox="0 0 20 20" enable-background="new 0 0 20 20" xml:space="preserve">
<path fill="#39B54A" d="M19,11.688c0.259,1.135,0.193,2.492,0.221,3.779C19.28,14.082,19.715,12.645,19,11.688"/>
<path fill="#39B54A" d="M19.271,16.514c0.019,0.189,0.036,0.373,0.063,0.553c-0.541,0.713-1.365,1.014-2.239,1.357
	c0.874-0.344,1.843-0.512,2.383-1.225C19.378,16.979,19.312,16.75,19.271,16.514"/>
<path fill="#39B54A" d="M19.271,16.514c-0.031-0.338-0.044-0.689-0.05-1.047C19.205,15.822,19.21,16.176,19.271,16.514"/>
<path fill="#39B54A" d="M19.334,17.066c-0.027-0.18-0.045-0.363-0.063-0.553c-0.061-0.338-0.065-0.691-0.05-1.047
	c-0.027-1.285,0.038-2.645-0.221-3.779c-1.243-0.774-2.487-1.549-3.605-2.449c0.087-0.163,0.25-0.25,0.204-0.543
	c-0.12-0.221-0.247-0.434-0.341-0.681c0.151-1.636,0.482-3.639,0.068-4.966c-0.37-0.401-0.842-0.702-1.293-1.02
	c-0.283-0.035-0.299,0.197-0.612,0.134c-1.314-0.406-2.267-1.179-3.536-1.632C9.786,0.569,9.719,0.637,9.679,0.735
	C9.085,0.896,8.483,0.982,7.912,1.143C7.342,1.304,6.819,1.594,6.279,1.688C5.9,1.754,5.388,1.552,5.122,1.96
	C5.299,3.713,5.05,6.471,4.987,8.626c-1.332,0.631-2.676,1.49-4.355,1.564c-0.178,1.327-0.088,3.643-0.067,5.307
	c0.778,0.578,1.573,1.277,2.448,1.906c0.787,0.563,1.82,1.404,2.655,1.768c0.576,0.252,0.987-0.059,1.7-0.273
	c1.216-0.363,2.768-0.336,3.334-0.748c1.205,0.383,1.961,1.215,3.129,1.633c1.288-0.313,2.163-0.928,3.265-1.359
	C17.969,18.08,18.793,17.779,19.334,17.066 M6.619,3.458c0.859,0.59,1.911,0.99,2.856,1.495C9.563,6.396,9.447,8.011,9.34,9.919
	C8.036,9.703,7.218,9.003,6.346,8.355C6.386,6.872,6.499,4.83,6.619,3.458 M5.191,17.607c-1.339-0.643-2.367-1.252-3.458-2.598
	c0.069-0.814-0.048-3.457-0.043-3.543c1.115,0.268,2.202,1.09,3.024,1.65C5.352,14.164,5.312,15.945,5.191,17.607 M5.667,12.436
	c-0.849-0.398-1.568-0.926-2.382-1.359c0.858-0.638,2.206-0.788,3.13-1.361C7.211,10.302,8.39,10.507,9,11.281
	C7.867,11.645,6.736,12.01,5.667,12.436 M9.273,17.061c-0.803,0.266-1.84,0.295-2.655,0.547C6.572,16.531,6.533,15.254,6.482,14
	c0.618-0.811,1.953-0.904,2.993-1.291C9.962,13.881,9.509,15.891,9.273,17.061 M10.089,4.137C9.19,3.673,8.128,3.375,7.435,2.708
	c0.854-0.256,1.721-0.5,2.586-0.748c0.97,0.322,1.925,0.659,2.72,1.157C11.97,3.569,11.021,3.845,10.089,4.137 M10.903,5.36
	c0.966-0.507,2.148-0.799,3.13-1.292c0.227,1.403-0.116,2.83-0.135,4.218c-0.988,0.531-2.059,0.979-3.13,1.429
	C10.731,8.079,11.004,6.822,10.903,5.36 M13.489,18.219c-0.9-0.15-1.833-0.836-2.652-1.293c0.062-1.645,0.195-2.934,0.204-4.354
	c0.715,0.328,1.349,0.738,2.108,1.021C13.56,14.926,13.486,16.416,13.489,18.219 M13.692,12.641
	c-1.078-0.123-1.767-1.08-2.719-1.359c0.782-0.739,1.98-1.059,2.992-1.566c1.001,0.697,2.195,1.206,2.994,2.109
	C15.889,11.842,14.851,12.771,13.692,12.641 M17.912,16.383c-0.825,0.672-2.022,0.971-3.129,1.359c0-1.686-0.081-2.041-0.07-3.672
	c1-0.477,2.085-0.863,3.335-1.09C18.057,13.926,17.891,15.41,17.912,16.383"/>
</svg>
