<?xml version="1.0" encoding="utf-8"?>
<!-- Generator: Adobe Illustrator 14.0.0, SVG Export Plug-In . SVG Version: 6.00 Build 43363)  -->
<!DOCTYPE svg PUBLIC "-//W3C//DTD SVG 1.1//EN" "http://www.w3.org/Graphics/SVG/1.1/DTD/svg11.dtd">
<svg version="1.1" id="Layer_1" xmlns="http://www.w3.org/2000/svg" xmlns:xlink="http://www.w3.org/1999/xlink" x="0px" y="0px"
	 width="20px" height="20px" viewBox="0 0 20 20" enable-background="new 0 0 20 20" xml:space="preserve">
<path fill-rule="evenodd" clip-rule="evenodd" fill="#39B54A" d="M11.321,0.785c0.391,0.672,0.298,1.596,0.568,2.442
	c0.672-0.144,1.197-1,2.24-0.773c0.222,0.579,0.068,1.117,0.162,1.791c0.833-0.12,1.693-0.88,2.564-0.447
	c0.131,0.851-0.258,1.976-0.244,2.847c0.463,0.289,2.26-0.234,2.318,0.448c0.016,0.198-0.531,0.956-0.652,1.141
	c-0.256,0.394-0.531,0.667-0.77,0.976c0.252,0.294,0.617,0.378,1.055,0.609c0.305,0.16,0.984,0.351,0.938,0.733
	c-0.029,0.241-0.373,0.303-0.57,0.407c-0.52,0.274-1.072,0.767-1.465,1.138c0.221,0.176,0.344,0.4,0.648,0.57
	c0.316,0.174,1.09,0.24,0.939,0.732c-0.059,0.191-0.285,0.145-0.49,0.205c-0.484,0.139-1.23,0.449-1.707,0.648
	c0.012,0.971,0.738,1.424,0.771,2.24c-0.602,0.344-1.875,0.084-2.93,0.162c-0.35,0.533-0.368,1.34-0.365,2.035
	c-0.207,0.168-0.48,0.029-0.773,0.121c-0.615-0.512-1.43-0.822-2.075-1.303c-0.501,0.354-0.81,0.9-0.938,1.629
	c-0.289,0.133-0.514,0.125-0.894,0.08c-0.533-0.699-1.097-1.371-1.546-2.154c-0.439,0.264-0.96,0.447-1.22,0.895
	c-0.176-0.045-0.625,0.025-0.897-0.123c-0.217-0.604-0.156-1.447-0.364-2.115c-1.056-0.07-1.979,0.539-3.011,0.203
	c0.056-0.676,0.244-1.221,0.325-1.873c-0.514-0.475-1.628-0.352-2.116-0.854c0.46-0.896,1.258-1.455,1.748-2.321
	C2.064,10.151,1.269,9.711,0.497,9.25C0.598,8.84,1.103,8.721,1.472,8.476c0.375-0.248,0.809-0.455,1.142-0.691
	C2.278,7.116,1.799,6.588,1.472,5.913C2.015,5.269,3.31,5.66,4.363,5.545c-0.095-0.95-0.238-1.85-0.571-2.563
	C4.611,2.225,5.367,3.363,6.153,3.51C6.25,3.069,6.351,2.613,6.315,2.168C6.307,2.044,6.204,1.88,6.233,1.762
	C6.3,1.511,6.762,1.37,7.006,1.395C7.647,1.462,8.25,2.754,8.797,3.022c0.57-0.678,1.186-1.31,1.629-2.115
	C10.778,0.816,10.935,0.695,11.321,0.785 M9.531,4.921C8.69,5.303,8.202,4.278,7.637,3.872C7.57,4.259,7.566,4.803,7.569,5.155
	c-0.63,0.339-1.17-0.234-1.69-0.337C5.828,5.427,6.398,6.391,6.047,6.712c-0.691,0-1.427-0.017-2.164,0.034
	c0.131,0.545,0.7,0.944,0.915,1.522c-0.12,0.256-0.424,0.189-0.645,0.27C3.751,8.687,3.415,9.031,3.14,9.284
	c0.471,0.258,0.881,0.582,1.249,0.946c0.212,0.061,0.359,0.184,0.373,0.438c-0.531,0.474-1.045,1.141-1.354,1.723
	c0.482,0.311,1.36,0.221,1.624,0.746c-0.166,0.342-0.303,0.713-0.305,1.217c0.708-0.129,1.291-0.078,1.861-0.17
	c0.096-0.016,0.194-0.078,0.269-0.066c0.574,0.092,0.179,1.154,0.441,1.623c0.503-0.18,1.403-1.066,1.792-0.338
	c0.229,0.43,0.376,1.037,0.779,1.285c0.23-0.275,0.282-0.73,0.712-0.813c-0.011-0.357,0.358-0.338,0.606-0.439
	c0.505,0.33,0.945,0.723,1.555,0.949c0.06-0.408,0.251-0.777,0.204-1.186c0.378-0.588,1.752-0.01,2.332-0.236
	c-0.239-0.516-0.395-1.113-0.573-1.689c0.233-0.512,1.202-0.287,1.519-0.711c-0.377-0.332-0.924-0.492-1.182-0.947
	c0.512-0.503,1.217-0.813,1.723-1.321c-0.58-0.34-1.297-0.552-1.757-1.012c0.034-0.281,0.325-0.279,0.507-0.408
	c0.379-0.262,0.57-0.739,0.813-1.148c-0.582-0.184-1.691,0.29-1.791-0.339c-0.016-0.084,0.082-0.218,0.1-0.303
	c0.105-0.531,0.092-1.307,0.137-1.725c-0.271,0.122-0.682,0.207-0.981,0.403c-0.083,0.058-0.143,0.177-0.235,0.204
	c-0.314,0.094-0.667-0.062-0.881-0.305c0.105-0.385-0.063-0.789-0.032-1.216c-0.585,0.211-1.418,1.113-2.031,0.37
	c0.083-0.402,0.01-1.071-0.206-1.386C10.093,3.903,9.64,4.24,9.531,4.921"/>
</svg>
