<?xml version="1.0" encoding="utf-8"?>
<!-- Generator: Adobe Illustrator 14.0.0, SVG Export Plug-In . SVG Version: 6.00 Build 43363)  -->
<!DOCTYPE svg PUBLIC "-//W3C//DTD SVG 1.1//EN" "http://www.w3.org/Graphics/SVG/1.1/DTD/svg11.dtd">
<svg version="1.1" id="Layer_1" xmlns="http://www.w3.org/2000/svg" xmlns:xlink="http://www.w3.org/1999/xlink" x="0px" y="0px"
	 width="20px" height="20px" viewBox="0 0 20 20" enable-background="new 0 0 20 20" xml:space="preserve">
<path fill-rule="evenodd" clip-rule="evenodd" d="M9.253,7.1c1.535-0.186,2.461,1.202,1.62,2.699
	c1.125,0.193,3.225,0.033,3.239,1.62c-0.668,0.566-2.18,0.166-3.239-0.09c-0.331,1.119,0.18,2.037,0,2.969
	c-0.794,0.414-1.475-0.152-2.069-0.451c0.158-0.799-0.007-2.041,0-2.697c-1.094-0.302-3.177-0.025-2.879-1.62
	c1.048-0.468,2.061-0.228,2.879,0.18C9.35,9.158,9.054,7.764,9.253,7.1"/>
<path fill-rule="evenodd" clip-rule="evenodd" d="M10.153,3.591c1.01-0.292,1.321-1.247,2.249-1.44
	c0.682-0.142,1.862,0.109,2.61,0.36c2.31,0.777,4.465,3.4,4.678,6.028c0.138,1.679-0.606,2.943-1.26,4.408
	c-1.115,0.9-1.953,2.107-3.418,2.879c-1.026,0.539-2.177,0.904-3.059,1.617c-0.451,0.367-0.96,1.127-1.441,1.172
	c-0.626,0.059-1.398-0.697-1.979-1.172c-1.687-1.371-3.722-2.531-4.678-4.496c-1.609-1.438-2.82-3.073-3.419-5.398
	c0.018,0.069-0.001-0.157,0-0.089c-0.024-1.664,1.16-3.903,2.699-4.679C5.175,1.754,8.604,2.045,10.153,3.591 M5.385,12.766
	c0.544,0.592,1.121,1.313,1.62,1.801c0.321,0.314,2.35,2.096,2.968,2.07c0.389-0.016,1.588-0.941,2.161-1.26
	c2.542-1.42,5.719-3.111,5.667-6.838c-0.031-2.226-1.861-5.333-4.319-4.948c-0.572,0.089-1.513,0.814-1.799,1.168
	c-0.314,0.392-0.308,1.149-0.989,1.26c-1.478,0.241-1.738-1.722-2.789-2.25c-1.141-0.572-1.867-0.123-3.33,0.09
	C3.073,4.951,1.874,6.829,2.686,9.258C3.58,10.782,4.191,11.475,5.385,12.766"/>
</svg>
