<?xml version="1.0" encoding="utf-8"?>
<!-- Generator: Adobe Illustrator 14.0.0, SVG Export Plug-In . SVG Version: 6.00 Build 43363)  -->
<!DOCTYPE svg PUBLIC "-//W3C//DTD SVG 1.1//EN" "http://www.w3.org/Graphics/SVG/1.1/DTD/svg11.dtd">
<svg version="1.1" id="Layer_1" xmlns="http://www.w3.org/2000/svg" xmlns:xlink="http://www.w3.org/1999/xlink" x="0px" y="0px"
	 width="29px" height="29px" viewBox="0 0 29 29" enable-background="new 0 0 29 29" xml:space="preserve">
<path fill-rule="evenodd" clip-rule="evenodd" d="M13.692,26.734c0.289-0.045,0.324,0.163,0.639,0.09
	C14.309,26.958,13.58,27.038,13.692,26.734"/>
<path fill-rule="evenodd" clip-rule="evenodd" d="M26.838,1.904c-0.785,4.39,0.672,8.9,0.82,13.328
	c0.033,0.978-0.188,2.047-0.182,3.104c0.014,2.647,0.057,5.117-0.455,7.304c0.031,0.493,0.381,0.921,0.184,1.367
	c-0.389,0.283-0.818,0.521-1.191,0.822c-4.494,0.104-9.543,0.228-14.877,0c-1.47-0.062-3.001,0.001-4.382,0
	c-2.126-0.004-3.915,0.529-5.386-0.365c-0.15-0.671,0.303-2.017,0.365-2.92c0.252-3.622-0.183-7.734,0-11.503
	c0.191-3.9,0.206-7.722,0.548-11.32c0.756-0.668,1.724-0.339,2.647-0.273c4.573,0.327,10.418,0.254,14.7-0.183
	c0.742-0.076,1.623-0.162,2.281-0.183C23.643,1.028,25.869,0.758,26.838,1.904 M18.348,3.912c-1.113,0.905-1.428,2.887-1.551,4.838
	c-0.102,1.581-0.09,2.99,0.273,4.382c-1.17,0.643-2.674-0.17-4.107,0.274c-0.112,0.876-0.014,1.442-0.183,2.465
	c1.69,0.152,3.493-0.216,4.198,1.186c-0.234,3.378-0.393,6.93,0.092,9.86c0.799-0.074,1.42,0.031,2.373,0
	c0.242-2.786-0.641-6.781-0.273-9.769c0.029-0.248,0.203-0.727,0.459-0.912c1.367-0.03,3.432-0.269,4.836-0.456
	c0.07-0.953-0.113-1.652-0.092-2.556c-1.799-0.236-3.277,0.292-4.93-0.457c0.105-0.485-0.354-0.719-0.455-1.187
	c-0.377-1.709,0.441-3.922,0.547-5.386c0.854-1.2,2.699-0.083,4.014-0.548c-0.021-1.06-0.096-1.319,0.094-2.282
	C21.684,3.588,19.732,2.789,18.348,3.912 M14.332,26.824c-0.316,0.073-0.351-0.135-0.639-0.089
	C13.58,27.038,14.309,26.958,14.332,26.824"/>
</svg>
