<?xml version="1.0" encoding="utf-8"?>
<!-- Generator: Adobe Illustrator 14.0.0, SVG Export Plug-In . SVG Version: 6.00 Build 43363)  -->
<!DOCTYPE svg PUBLIC "-//W3C//DTD SVG 1.1//EN" "http://www.w3.org/Graphics/SVG/1.1/DTD/svg11.dtd">
<svg version="1.1" id="Layer_1" xmlns="http://www.w3.org/2000/svg" xmlns:xlink="http://www.w3.org/1999/xlink" x="0px" y="0px"
	 width="20px" height="20px" viewBox="0 0 20 20" enable-background="new 0 0 20 20" xml:space="preserve">
<path fill-rule="evenodd" clip-rule="evenodd" fill="#39B54A" d="M1.919,15.613c-0.704-0.934-0.382-2.301-0.531-3.537
	c-0.159-1.312-0.411-2.585-0.619-3.89C0.391,7.523,0.247,7.073,0.238,6.153C0.87,5.704,1.739,5.839,2.537,5.799
	c2.713-0.133,6.14-0.097,9.55-0.089c0.628,0.002,1.643-0.135,2.035,0c0.412,0.144,0.362,0.524,0.707,0.885
	c0.979,1.029,2.692,1.595,3.712,2.299c0.386,0.646,1.008,1.524,0.973,2.297c-1.146,1.417-2.828,2.303-4.066,3.628
	c-0.292,0.311-0.354,0.792-0.799,0.971C9.782,15.559,6.197,15.708,1.919,15.613 M13.06,7.567c-4.188,0.053-7.5-0.1-10.963,0.265
	c0.223,1.666,0.697,3.759,0.884,5.746c4.114,0.104,6.77,0.173,10.432,0.179c1.367-0.991,2.639-2.077,3.801-3.272
	C15.991,9.351,14.346,8.638,13.06,7.567"/>
<path fill-rule="evenodd" clip-rule="evenodd" fill="#39B54A" d="M11.91,10.131c-0.205,2.019,2.583,2.966,2.83,0.884
	c0.122-1.054-0.64-1.508-1.149-2.121C12.375,8.8,11.973,9.517,11.91,10.131"/>
<path fill-rule="evenodd" clip-rule="evenodd" fill="#39B54A" d="M13.591,8.894c0.51,0.614,1.271,1.068,1.149,2.122
	c-0.247,2.082-3.035,1.135-2.83-0.884C11.971,9.517,12.375,8.8,13.591,8.894"/>
</svg>
