<?xml version="1.0" encoding="utf-8"?>
<!-- Generator: Adobe Illustrator 15.1.0, SVG Export Plug-In . SVG Version: 6.00 Build 0)  -->
<!DOCTYPE svg PUBLIC "-//W3C//DTD SVG 1.1//EN" "http://www.w3.org/Graphics/SVG/1.1/DTD/svg11.dtd">
<svg version="1.1" id="Calque_1" xmlns="http://www.w3.org/2000/svg" xmlns:xlink="http://www.w3.org/1999/xlink" x="0px" y="0px"
	 width="40px" height="40px" viewBox="0 0 40 40" enable-background="new 0 0 40 40" xml:space="preserve">
<g>
	<path fill-rule="evenodd" clip-rule="evenodd" fill="#40A52B" d="M22.857,0.068c0.842,1.454,0.644,3.453,1.231,5.281
		c1.456-0.311,2.584-2.162,4.842-1.672c0.481,1.251,0.147,2.414,0.354,3.873c1.804-0.26,3.665-1.904,5.545-0.969
		c0.284,1.842-0.56,4.277-0.53,6.161c1.001,0.624,4.891-0.509,5.018,0.968c0.037,0.429-1.151,2.069-1.408,2.465
		c-0.555,0.854-1.152,1.447-1.672,2.112c0.552,0.636,1.339,0.818,2.289,1.32c0.651,0.346,2.128,0.758,2.024,1.584
		c-0.066,0.521-0.81,0.656-1.233,0.881c-1.124,0.592-2.322,1.659-3.169,2.464c0.476,0.379,0.743,0.865,1.409,1.232
		c0.681,0.377,2.35,0.521,2.024,1.584c-0.126,0.413-0.613,0.312-1.056,0.44c-1.054,0.303-2.664,0.973-3.696,1.407
		c0.026,2.102,1.596,3.076,1.672,4.842c-1.301,0.745-4.058,0.186-6.338,0.353c-0.759,1.159-0.801,2.899-0.792,4.399
		c-0.449,0.368-1.037,0.067-1.673,0.265c-1.328-1.105-3.092-1.778-4.489-2.816c-1.084,0.766-1.749,1.946-2.024,3.521
		c-0.63,0.288-1.113,0.27-1.936,0.177c-1.154-1.518-2.371-2.969-3.345-4.665c-0.95,0.576-2.079,0.973-2.641,1.936
		c-0.383-0.096-1.35,0.058-1.936-0.264c-0.471-1.304-0.341-3.127-0.792-4.576c-2.283-0.149-4.28,1.167-6.513,0.44
		c0.122-1.463,0.527-2.643,0.704-4.05C3.614,27.731,1.204,28,0.149,26.912c0.997-1.936,2.722-3.146,3.785-5.017
		c-1.1-1.571-2.821-2.519-4.489-3.521c0.216-0.882,1.311-1.142,2.112-1.673c0.81-0.536,1.747-0.983,2.465-1.496
		c-0.724-1.448-1.758-2.584-2.465-4.049c1.174-1.392,3.976-0.548,6.25-0.792C7.603,8.31,7.291,6.363,6.575,4.821
		c1.769-1.638,3.403,0.825,5.104,1.144c0.21-0.956,0.429-1.943,0.353-2.904c-0.021-0.269-0.243-0.623-0.176-0.88
		c0.141-0.543,1.14-0.847,1.672-0.792c1.381,0.145,2.686,2.941,3.872,3.52c1.232-1.467,2.566-2.833,3.522-4.577
		C21.685,0.138,22.022-0.126,22.857,0.068z M18.984,6.933c-2.189,0.996-3.456-1.672-4.929-2.729
		C13.88,5.21,13.872,6.627,13.88,7.549c-1.645,0.877-3.04-0.612-4.401-0.88c-0.131,1.581,1.353,4.091,0.44,4.928
		c-1.798-0.001-3.714-0.043-5.633,0.088c0.344,1.418,1.822,2.46,2.376,3.961c-0.306,0.668-1.097,0.493-1.672,0.704
		c-1.052,0.386-1.925,1.285-2.64,1.937c1.232,0.674,2.297,1.516,3.256,2.464c0.546,0.157,0.927,0.482,0.969,1.144
		c-1.38,1.232-2.719,2.972-3.521,4.488c1.252,0.803,3.539,0.569,4.225,1.938c-0.43,0.891-0.788,1.852-0.792,3.168
		c1.841-0.341,3.359-0.205,4.841-0.44c0.251-0.04,0.503-0.208,0.704-0.176c1.486,0.235,0.459,3,1.144,4.226
		c1.314-0.47,3.645-2.778,4.665-0.881c0.6,1.117,0.98,2.698,2.024,3.345c0.602-0.719,0.742-1.899,1.848-2.112
		c-0.022-0.933,0.938-0.882,1.585-1.144c1.315,0.855,2.462,1.879,4.049,2.463c0.15-1.057,0.649-2.018,0.528-3.08
		c0.985-1.528,4.559-0.028,6.072-0.616c-0.624-1.342-1.03-2.9-1.496-4.4c0.611-1.326,3.127-0.745,3.961-1.849
		c-0.985-0.863-2.415-1.281-3.08-2.465c1.332-1.307,3.166-2.114,4.487-3.432c-1.521-0.885-3.369-1.442-4.576-2.641
		c0.086-0.728,0.84-0.722,1.321-1.057c0.983-0.683,1.479-1.926,2.112-2.993c-1.518-0.48-4.406,0.757-4.665-0.88
		c-0.035-0.221,0.22-0.57,0.263-0.792c0.274-1.379,0.245-3.397,0.354-4.489c-0.708,0.318-1.771,0.54-2.554,1.056
		c-0.22,0.146-0.377,0.457-0.616,0.529c-0.815,0.246-1.731-0.159-2.287-0.792c0.271-1.005-0.173-2.057-0.089-3.168
		c-1.513,0.55-3.688,2.898-5.28,0.968c0.215-1.05,0.028-2.791-0.528-3.609C20.443,4.284,19.266,5.161,18.984,6.933z"/>
	<path fill-rule="evenodd" clip-rule="evenodd" fill="#40A52B" d="M30.954,26.736c-1.186,0.836-2.713,1.872-4.312,2.816
		c-1.596,0.943-3.395,1.697-4.577,2.553c-0.498,0.359-0.746,0.893-1.32,0.881c-1.034-0.023-1.458-1.541-2.641-0.969
		c-0.977-0.996-2.326-1.471-3.608-2.112c-1.788-0.894-3.487-1.957-5.721-2.553c-0.16-0.369-0.194-0.862-0.617-0.969
		c0.506-3.965-0.348-8.159,0.176-11.53c3.371-1.997,7.617-3.12,10.738-5.369c1.088-0.032,1.691,0.42,1.937,1.232
		c2.098,0.702,4.445,1.936,6.777,2.728c0.815,0.277,1.782,0.338,2.376,0.704c0.572,0.353,0.708,1.093,1.057,1.584
		c-0.283,1.15-0.249,2.601-0.266,4.049c-0.016,1.563-0.205,3.185-0.087,4.576c0.024,0.294,0.19,0.521,0.176,0.793
		C31.008,25.774,30.573,26.158,30.954,26.736z M19.512,11.774c-2.624,1.366-5.65,2.329-8.185,3.785
		c1.994,0.84,4.179,1.472,6.072,2.376c0.606,0.29,1.307,0.875,1.849,0.88c0.553,0.006,1.39-0.646,2.024-0.968
		c2.103-1.07,4.177-1.894,5.984-2.993C24.603,13.901,22.348,12.548,19.512,11.774z M28.667,16.527
		c-2.646,1.344-5.521,2.458-7.922,4.049c0.22,3.411,0.377,6.841,0.528,9.681c2.524-1.466,5.114-2.866,7.48-4.488
		C28.678,23.413,29.231,19.061,28.667,16.527z M10.447,25.328c0.337,0.368,0.784,0.625,1.409,0.704
		c0.94,0.928,2.367,1.324,3.608,1.937c1.256,0.62,2.396,1.442,3.61,1.76c0.052-3.272-0.087-6.396-0.705-9.065
		c-0.022-0.316,0.264-0.323,0.264-0.616c-2.606-1.266-5.478-2.268-8.273-3.345C10.344,18.847,10.276,22.896,10.447,25.328z"/>
</g>
</svg>
