<?xml version="1.0" encoding="utf-8"?>
<!-- Generator: Adobe Illustrator 14.0.0, SVG Export Plug-In . SVG Version: 6.00 Build 43363)  -->
<!DOCTYPE svg PUBLIC "-//W3C//DTD SVG 1.1//EN" "http://www.w3.org/Graphics/SVG/1.1/DTD/svg11.dtd">
<svg version="1.1" id="Layer_1" xmlns="http://www.w3.org/2000/svg" xmlns:xlink="http://www.w3.org/1999/xlink" x="0px" y="0px"
	 width="29px" height="29px" viewBox="0 0 29 29" enable-background="new 0 0 29 29" xml:space="preserve">
<path d="M18.785,25.36c0.365-0.064,0.493,0.11,0.821,0.084C19.62,25.087,18.88,25.136,18.785,25.36"/>
<path d="M23.966,25.276c0.169,0.084,0.417,0.295,0.411-0.079C24.256,25.24,23.951,25.101,23.966,25.276"/>
<path d="M26.761,2.828c-1.165-0.58-1.971-1.181-3.535-1.068c-1.07,0.076-2.428,0.397-3.702,0.575
	c-1.906,0.267-4.244,0.452-6.413,0.329c-0.869-0.05-1.755-0.28-2.631-0.329c-1.888-0.105-3.733,0.2-5.263,0.082
	c-0.95-0.073-1.869-0.561-2.714,0c0.001,4.913-0.34,9.643-0.247,13.815c0.075,3.329,0.319,6.671,0.082,9.949
	c0.252,0.379,0.453,0.811,0.822,1.071c5.99-0.682,12.747-0.021,18.174-0.247c1.165-0.048,2.665,0.032,3.124-0.657
	c0.376,0.17,1.197,0.34,1.727,0c0.219-0.528-0.063-1.171-0.082-1.645c-0.088-2.147,0.374-4.332,0.494-6.498
	C26.889,12.912,26.284,7.985,26.761,2.828 M18.785,25.36c0.095-0.225,0.836-0.273,0.821,0.082
	C19.277,25.471,19.15,25.296,18.785,25.36 M22.485,9.242c-0.806,0.588-1.327,2.109-1.811,3.207c-1.584,3.61-3.135,8.111-7.976,8.554
	c-2.007,0.181-3.239-0.461-4.44-1.399c1.464-0.615,6.478-2.294,3.701-3.864c-2.444,0.031-3.668-1.155-4.605-2.632
	c0.382,0.025,0.712-0.001,0.905-0.166c-0.425-1.082-1.477-1.538-1.48-3.042c0.581,0.434,1.465,1.714,2.302,0.659
	C8.693,9.959,8.168,9.498,7.519,9.16c0.016-0.987-0.788-1.485-0.741-2.549c2.346,1.065,5.154,2.367,7.896,2.468
	c0.317,0.01,1.006,0.703,1.479,0.575c0.952-0.257,0.189-1.755,0.658-2.467c0.975-0.861,4.235-0.924,3.784,0.987
	c0.511,0.962,1.843,0.125,2.63-0.082C23.47,8.328,22.545,8.766,22.485,9.242 M23.966,25.276c-0.015-0.176,0.29-0.036,0.411-0.079
	C24.383,25.571,24.135,25.36,23.966,25.276"/>
</svg>
