<?xml version="1.0" encoding="utf-8"?>
<!-- Generator: Adobe Illustrator 14.0.0, SVG Export Plug-In . SVG Version: 6.00 Build 43363)  -->
<!DOCTYPE svg PUBLIC "-//W3C//DTD SVG 1.1//EN" "http://www.w3.org/Graphics/SVG/1.1/DTD/svg11.dtd">
<svg version="1.1" id="Layer_1" xmlns="http://www.w3.org/2000/svg" xmlns:xlink="http://www.w3.org/1999/xlink" x="0px" y="0px"
	 width="40px" height="40px" viewBox="0 0 40 40" enable-background="new 0 0 40 40" xml:space="preserve">
<path fill-rule="evenodd" clip-rule="evenodd" d="M22.568,2.083c0.758,1.306,0.58,3.104,1.109,4.746
	C24.986,6.55,26,4.886,28.029,5.327c0.432,1.125,0.133,2.17,0.316,3.481c1.621-0.233,3.295-1.711,4.984-0.871
	c0.256,1.656-0.502,3.845-0.475,5.538c0.898,0.562,4.395-0.457,4.51,0.871c0.033,0.385-1.035,1.86-1.266,2.215
	c-0.5,0.767-1.037,1.301-1.504,1.899c0.496,0.572,1.205,0.736,2.057,1.187c0.586,0.311,1.914,0.682,1.818,1.424
	c-0.059,0.469-0.725,0.59-1.105,0.792c-1.012,0.533-2.088,1.492-2.85,2.215c0.428,0.34,0.668,0.777,1.266,1.107
	c0.613,0.339,2.113,0.469,1.82,1.425c-0.113,0.372-0.549,0.28-0.949,0.395c-0.945,0.273-2.393,0.876-3.322,1.267
	c0.025,1.889,1.434,2.766,1.504,4.351c-1.168,0.671-3.648,0.168-5.697,0.317c-0.682,1.041-0.721,2.607-0.711,3.955
	c-0.404,0.331-0.934,0.06-1.506,0.236c-1.193-0.992-2.777-1.597-4.033-2.529c-0.975,0.688-1.573,1.75-1.82,3.163
	c-0.567,0.258-1.001,0.243-1.74,0.159c-1.037-1.362-2.132-2.669-3.007-4.192c-0.854,0.517-1.868,0.873-2.373,1.739
	c-0.344-0.086-1.213,0.051-1.74-0.236c-0.423-1.173-0.307-2.812-0.712-4.114c-2.052-0.133-3.848,1.049-5.855,0.396
	c0.11-1.313,0.474-2.375,0.632-3.64c-1-0.925-3.167-0.685-4.114-1.662c0.896-1.739,2.447-2.828,3.403-4.51
	c-0.988-1.411-2.536-2.264-4.035-3.165c0.193-0.793,1.178-1.025,1.898-1.502c0.728-0.482,1.57-0.885,2.216-1.345
	c-0.651-1.301-1.581-2.323-2.216-3.64c1.056-1.25,3.573-0.492,5.618-0.712C8.857,9.491,8.577,7.741,7.933,6.355
	c1.591-1.473,3.06,0.741,4.589,1.028c0.189-0.859,0.386-1.747,0.317-2.611c-0.019-0.241-0.218-0.56-0.159-0.792
	c0.127-0.489,1.024-0.762,1.503-0.712c1.241,0.13,2.414,2.644,3.481,3.165c1.108-1.319,2.306-2.546,3.166-4.114
	C21.516,2.145,21.818,1.908,22.568,2.083 M19.088,8.254c-1.967,0.896-3.107-1.503-4.431-2.453C14.5,6.705,14.493,7.979,14.5,8.808
	c-1.479,0.788-2.732-0.55-3.956-0.791c-0.118,1.42,1.216,3.677,0.395,4.431c-1.616-0.001-3.338-0.039-5.063,0.079
	c0.31,1.275,1.638,2.211,2.136,3.561c-0.275,0.601-0.986,0.443-1.503,0.633c-0.945,0.347-1.73,1.155-2.374,1.741
	c1.108,0.606,2.065,1.362,2.927,2.215c0.492,0.142,0.833,0.432,0.871,1.028c-1.241,1.108-2.444,2.671-3.165,4.035
	c1.125,0.722,3.18,0.511,3.797,1.741c-0.386,0.801-0.708,1.666-0.711,2.848c1.654-0.305,3.019-0.184,4.352-0.396
	c0.226-0.036,0.452-0.188,0.633-0.158c1.336,0.211,0.412,2.697,1.028,3.798c1.181-0.422,3.276-2.497,4.193-0.792
	c0.539,1.006,0.881,2.426,1.819,3.009c0.541-0.646,0.667-1.709,1.662-1.9c-0.021-0.839,0.844-0.792,1.424-1.028
	c1.184,0.769,2.213,1.69,3.639,2.216c0.137-0.951,0.586-1.813,0.477-2.771c0.885-1.373,4.098-0.023,5.459-0.552
	c-0.561-1.207-0.928-2.609-1.346-3.957c0.549-1.191,2.811-0.67,3.561-1.662c-0.885-0.776-2.172-1.15-2.77-2.215
	c1.199-1.176,2.846-1.9,4.035-3.085c-1.367-0.795-3.029-1.296-4.113-2.374c0.078-0.654,0.754-0.649,1.186-0.949
	c0.885-0.615,1.332-1.731,1.9-2.69c-1.365-0.433-3.961,0.681-4.193-0.791c-0.033-0.198,0.197-0.513,0.236-0.712
	c0.246-1.239,0.221-3.054,0.316-4.035c-0.635,0.286-1.592,0.485-2.295,0.949c-0.197,0.131-0.338,0.41-0.555,0.475
	c-0.73,0.222-1.557-0.143-2.057-0.712c0.244-0.903-0.154-1.849-0.078-2.848c-1.359,0.495-3.314,2.604-4.747,0.871
	c0.192-0.944,0.026-2.509-0.475-3.244C20.399,5.873,19.342,6.661,19.088,8.254"/>
<path fill-rule="evenodd" clip-rule="evenodd" d="M29.85,26.055c-1.068,0.753-2.441,1.683-3.879,2.533
	c-1.434,0.846-3.049,1.522-4.113,2.293c-0.447,0.323-0.67,0.804-1.187,0.791c-0.929-0.021-1.31-1.385-2.374-0.868
	c-0.878-0.896-2.091-1.324-3.244-1.9c-1.606-0.803-3.133-1.759-5.142-2.293c-0.143-0.333-0.174-0.777-0.554-0.872
	c0.455-3.564-0.313-7.334,0.158-10.364c3.031-1.796,6.848-2.806,9.653-4.827c0.978-0.029,1.521,0.378,1.74,1.107
	c1.887,0.631,3.996,1.741,6.092,2.453c0.734,0.249,1.604,0.303,2.137,0.633c0.514,0.316,0.637,0.982,0.949,1.423
	c-0.254,1.035-0.225,2.338-0.236,3.639c-0.016,1.407-0.186,2.863-0.08,4.115c0.021,0.265,0.172,0.469,0.158,0.712
	C29.896,25.19,29.506,25.535,29.85,26.055 M19.563,12.605c-2.358,1.228-5.08,2.094-7.357,3.401c1.792,0.756,3.756,1.324,5.458,2.137
	c0.544,0.259,1.174,0.786,1.662,0.791c0.498,0.006,1.249-0.581,1.819-0.87c1.89-0.962,3.755-1.702,5.38-2.69
	C24.139,14.518,22.111,13.301,19.563,12.605 M27.791,16.877c-2.377,1.209-4.963,2.211-7.12,3.639
	c0.198,3.067,0.339,6.151,0.475,8.703c2.269-1.317,4.597-2.576,6.726-4.035C27.801,23.067,28.299,19.156,27.791,16.877
	 M11.414,24.789c0.303,0.331,0.705,0.563,1.266,0.634c0.845,0.833,2.128,1.188,3.244,1.739c1.128,0.558,2.152,1.298,3.244,1.583
	c0.047-2.941-0.078-5.75-0.633-8.149c-0.02-0.284,0.238-0.29,0.237-0.553c-2.343-1.138-4.923-2.039-7.438-3.007
	C11.321,18.963,11.26,22.603,11.414,24.789"/>
</svg>
