<?xml version="1.0" encoding="utf-8"?>
<!-- Generator: Adobe Illustrator 14.0.0, SVG Export Plug-In . SVG Version: 6.00 Build 43363)  -->
<!DOCTYPE svg PUBLIC "-//W3C//DTD SVG 1.1//EN" "http://www.w3.org/Graphics/SVG/1.1/DTD/svg11.dtd">
<svg version="1.1" id="Layer_1" xmlns="http://www.w3.org/2000/svg" xmlns:xlink="http://www.w3.org/1999/xlink" x="0px" y="0px"
	 width="40px" height="40px" viewBox="0 0 40 40" enable-background="new 0 0 40 40" xml:space="preserve">
<path fill-rule="evenodd" clip-rule="evenodd" fill="#39B54A" d="M22.711,0.064c0.799,1.38,0.611,3.277,1.171,5.012
	c1.381-0.294,2.451-2.053,4.594-1.587c0.457,1.188,0.14,2.291,0.333,3.675c1.714-0.246,3.479-1.807,5.264-0.918
	c0.27,1.748-0.53,4.059-0.503,5.846c0.95,0.592,4.643-0.483,4.762,0.918c0.035,0.408-1.093,1.965-1.338,2.339
	c-0.526,0.809-1.091,1.374-1.586,2.005c0.523,0.604,1.27,0.776,2.172,1.253c0.619,0.327,2.021,0.718,1.92,1.503
	c-0.062,0.495-0.765,0.622-1.168,0.835c-1.066,0.563-2.204,1.575-3.009,2.338c0.45,0.357,0.706,0.82,1.339,1.17
	c0.645,0.357,2.229,0.494,1.919,1.504c-0.119,0.391-0.579,0.293-1.001,0.416c-0.999,0.289-2.527,0.924-3.507,1.338
	c0.024,1.992,1.514,2.918,1.585,4.59c-1.234,0.711-3.851,0.18-6.014,0.336c-0.719,1.1-0.76,2.754-0.749,4.178
	c-0.427,0.346-0.984,0.063-1.589,0.248c-1.261-1.047-2.934-1.686-4.259-2.672c-1.03,0.727-1.66,1.848-1.922,3.342
	c-0.598,0.27-1.057,0.256-1.836,0.168c-1.096-1.439-2.251-2.818-3.174-4.428c-0.901,0.547-1.973,0.924-2.506,1.838
	c-0.363-0.092-1.28,0.051-1.837-0.25c-0.446-1.238-0.323-2.969-0.751-4.344c-2.166-0.143-4.062,1.107-6.181,0.416
	c0.116-1.387,0.501-2.506,0.669-3.842c-1.057-0.977-3.343-0.721-4.344-1.754c0.947-1.836,2.583-2.986,3.593-4.761
	c-1.044-1.489-2.677-2.389-4.26-3.339C0.7,16.599,1.739,16.354,2.5,15.85c0.768-0.509,1.658-0.933,2.339-1.419
	C4.151,13.056,3.17,11.978,2.5,10.588c1.115-1.32,3.772-0.52,5.931-0.751C8.237,7.885,7.94,6.038,7.261,4.574
	C8.94,3.02,10.49,5.357,12.105,5.66c0.2-0.907,0.406-1.844,0.335-2.756c-0.021-0.255-0.231-0.592-0.167-0.835
	c0.133-0.517,1.081-0.805,1.586-0.751c1.31,0.136,2.55,2.79,3.675,3.34c1.169-1.393,2.436-2.688,3.341-4.343
	C21.599,0.131,21.919-0.12,22.711,0.064 M19.037,6.58c-2.078,0.945-3.279-1.587-4.677-2.589c-0.167,0.953-0.174,2.298-0.167,3.173
	c-1.56,0.833-2.885-0.581-4.176-0.835c-0.125,1.5,1.284,3.881,0.417,4.678c-1.706-0.001-3.524-0.042-5.344,0.083
	c0.326,1.345,1.729,2.333,2.254,3.758c-0.291,0.634-1.042,0.468-1.586,0.667c-0.999,0.367-1.827,1.219-2.506,1.838
	c1.169,0.64,2.179,1.438,3.09,2.338c0.518,0.15,0.879,0.457,0.918,1.084c-1.311,1.171-2.58,2.822-3.341,4.261
	c1.188,0.762,3.358,0.539,4.009,1.838c-0.408,0.846-0.748,1.758-0.752,3.006c1.747-0.324,3.188-0.195,4.594-0.418
	c0.239-0.035,0.478-0.197,0.669-0.166c1.41,0.223,0.436,2.846,1.085,4.01c1.247-0.445,3.458-2.637,4.427-0.838
	c0.568,1.063,0.93,2.563,1.92,3.176c0.57-0.682,0.703-1.805,1.754-2.006c-0.021-0.883,0.89-0.836,1.504-1.084
	c1.248,0.811,2.336,1.783,3.842,2.338c0.143-1.004,0.616-1.914,0.501-2.924c0.937-1.449,4.326-0.025,5.765-0.586
	c-0.593-1.271-0.979-2.75-1.422-4.174c0.58-1.258,2.968-0.707,3.759-1.754c-0.935-0.82-2.291-1.217-2.922-2.338
	c1.266-1.242,3.003-2.008,4.258-3.257c-1.443-0.84-3.196-1.37-4.343-2.506c0.083-0.691,0.797-0.687,1.253-1.001
	c0.933-0.65,1.404-1.829,2.005-2.841c-1.44-0.456-4.181,0.719-4.427-0.835c-0.032-0.208,0.209-0.54,0.249-0.751
	c0.26-1.308,0.233-3.223,0.336-4.259c-0.67,0.301-1.68,0.511-2.424,1.002c-0.209,0.139-0.356,0.433-0.584,0.501
	c-0.772,0.234-1.644-0.151-2.17-0.752c0.256-0.953-0.163-1.951-0.086-3.006c-1.436,0.522-3.499,2.75-5.009,0.919
	c0.203-0.997,0.028-2.648-0.502-3.424C20.42,4.065,19.304,4.897,19.037,6.58"/>
<path fill-rule="evenodd" clip-rule="evenodd" fill="#39B54A" d="M30.395,25.371c-1.124,0.793-2.574,1.775-4.092,2.672
	c-1.513,0.895-3.22,1.609-4.343,2.422c-0.47,0.342-0.709,0.848-1.252,0.836c-0.981-0.021-1.383-1.461-2.505-0.918
	c-0.927-0.945-2.208-1.398-3.424-2.006c-1.697-0.848-3.309-1.855-5.43-2.42c-0.15-0.354-0.184-0.82-0.583-0.92
	c0.479-3.762-0.331-7.743,0.167-10.941c3.199-1.895,7.228-2.961,10.189-5.094c1.033-0.031,1.605,0.398,1.837,1.168
	c1.991,0.667,4.221,1.838,6.432,2.59c0.773,0.262,1.691,0.32,2.254,0.667c0.544,0.335,0.672,1.038,1.003,1.504
	c-0.268,1.091-0.236,2.468-0.252,3.843c-0.013,1.483-0.193,3.021-0.083,4.343c0.024,0.279,0.183,0.494,0.167,0.75
	C30.446,24.459,30.033,24.822,30.395,25.371 M19.539,11.173c-2.49,1.296-5.362,2.21-7.768,3.59c1.894,0.798,3.966,1.397,5.763,2.256
	c0.575,0.273,1.24,0.83,1.755,0.834c0.525,0.006,1.317-0.613,1.92-0.917c1.995-1.018,3.963-1.797,5.678-2.841
	C24.367,13.192,22.229,11.907,19.539,11.173 M28.225,15.683c-2.509,1.276-5.238,2.333-7.517,3.842
	c0.208,3.237,0.356,6.493,0.501,9.186c2.396-1.391,4.853-2.721,7.099-4.258C28.233,22.217,28.76,18.088,28.225,15.683
	 M10.935,24.035c0.32,0.35,0.744,0.592,1.337,0.668c0.891,0.881,2.245,1.256,3.424,1.838c1.192,0.588,2.272,1.369,3.424,1.67
	c0.049-3.105-0.082-6.07-0.667-8.604c-0.023-0.298,0.25-0.305,0.249-0.584c-2.474-1.201-5.197-2.152-7.851-3.174
	C10.837,17.884,10.772,21.727,10.935,24.035"/>
</svg>
