<?xml version="1.0" encoding="utf-8"?>
<!-- Generator: Adobe Illustrator 14.0.0, SVG Export Plug-In . SVG Version: 6.00 Build 43363)  -->
<!DOCTYPE svg PUBLIC "-//W3C//DTD SVG 1.1//EN" "http://www.w3.org/Graphics/SVG/1.1/DTD/svg11.dtd">
<svg version="1.1" id="Layer_1" xmlns="http://www.w3.org/2000/svg" xmlns:xlink="http://www.w3.org/1999/xlink" x="0px" y="0px"
	 width="40px" height="40px" viewBox="0 0 40 40" enable-background="new 0 0 40 40" xml:space="preserve">
<path fill-rule="evenodd" clip-rule="evenodd" d="M35.816,7.813c-1.027,0.719-2.523,0.968-3.654,1.583
	c-0.795-0.34-1.543-0.729-1.947-1.461C31.371,6.79,35.361,4.801,35.816,7.813"/>
<path fill-rule="evenodd" clip-rule="evenodd" d="M37.643,16.944c-0.84,0.154-2.24,0.483-3.41,0.244
	c-0.967-0.199-3.217-1.723-1.584-2.313c0.121-0.043,2.832,0.034,3.41,0.122c0.732,0.111,1.121,0.482,1.584,0.852V16.944z"/>
<path fill-rule="evenodd" clip-rule="evenodd" d="M36.91,22.909v1.218c-2.383,0.22-5.961,0.073-5.479-2.313
	C33.229,21.832,35.514,21.902,36.91,22.909"/>
<path fill-rule="evenodd" clip-rule="evenodd" d="M36.666,30.336c-2.182,0.227-5.031-0.857-6.207-2.435
	c-0.09-0.536,0.395-0.499,0.486-0.853c2.082,0.516,3.895,1.3,5.721,2.07C36.59,29.707,36.828,29.979,36.666,30.336"/>
<path fill-rule="evenodd" clip-rule="evenodd" d="M25.588,5.866C26.5,6.217,27.58,6.723,27.779,7.57
	c0.172,0.729-0.162,1.72-0.121,2.678c0.166,3.929,0.688,9.29,0.854,13.148c0.08,1.894-0.555,3.83-0.244,6.209
	c-1.367,1.059-3.018,0.287-4.506-0.121c-1.637-0.451-3.44-0.734-5.113-1.219c-0.553,1.936,0.254,4.348-1.461,5.357
	c-1.721,1.014-5.901,0.404-7.183-0.852c-1.882-1.846-0.39-4.105-1.096-6.453c-1.33-0.71-3.873-0.27-4.87-0.121
	c-2.42-1.381-1.468-6.123-1.583-9.861C2.433,15.52,2.183,14.77,2.58,14.145c2.377-0.229,4.728,0.029,6.817-0.73
	c1.316-0.479,2.598-1.343,3.896-1.948c3.826-1.782,7.83-3.462,11.932-5.235C25.291,6.056,25.414,5.934,25.588,5.866 M25.102,9.031
	c-4.8,2.221-10.046,3.995-14.366,6.696c-0.599,3.008-0.17,5.193,0,8.278c4.623,1.376,10.602,2.444,14.852,3.409
	C26.057,21.211,25.584,14.729,25.102,9.031 M4.405,16.944c-0.075,2.841-0.061,3.408,0,6.209c1.634,0.243,2.753,0.152,4.018,0.122
	c0.28-2.434,0.348-4.504-0.122-7.062C7.045,16.5,5.335,16.332,4.405,16.944 M11.832,31.676c1.234,0.49,2.938,0.438,3.896-0.244
	c0.5-1.086,0.35-2.359,0.243-3.773c-1.566-0.219-3.029-0.543-4.504-0.853C11.231,28.564,11.232,30.498,11.832,31.676"/>
</svg>
